<?xml version="1.0" encoding="utf-8"?>
<!-- Generator: Adobe Illustrator 18.1.1, SVG Export Plug-In . SVG Version: 6.00 Build 0)  -->
<svg version="1.1" id="Ebene_1" xmlns="http://www.w3.org/2000/svg" xmlns:xlink="http://www.w3.org/1999/xlink" x="0px" y="0px"
	 viewBox="0 0 290.8 245.2" enable-background="new 0 0 290.8 245.2" xml:space="preserve">
<g>
	<path fill="#F6F6F6" d="M64,7.2c2.5,0,4.8,0.6,6.7,1.8c2,1.2,3.6,2.7,5.1,4.6c1.4,1.8,2.5,3.8,3.4,5.9c0.8,2.1,1.4,4.1,1.7,5.9
		c0.3,1.8,0.2,3.3-0.1,4.6c-0.3,1.2-0.9,1.8-1.8,1.8c-0.7,0-1.5-0.4-2.6-1.1c-1-0.7-2.3-1.5-3.7-2.4c-1.4-0.8-3.1-1.6-4.9-2.4
		c-1.8-0.7-3.8-1.1-6.1-1.1c-3.3,0-6.9,0.8-10.7,2.4c-3.8,1.6-7.5,3.6-11.1,5.9c-3.6,2.4-6.9,4.9-10,7.7c-3.1,2.7-5.6,5.3-7.4,7.7
		c-1.9,2.4-3,4.3-3.3,5.9c-0.4,1.6,0.4,2.4,2.3,2.4c1.3,0,2.9-0.4,5.1-1.2c2.1-0.8,4.6-1.6,7.6-2.6c2.9-1,6.2-1.8,9.9-2.6
		c3.7-0.8,7.8-1.2,12.4-1.2c6,0,10.8,0.6,14.3,1.9c3.6,1.3,6.3,2.9,8.2,4.9c1.9,2,3.2,4.2,3.8,6.6c0.6,2.4,0.9,4.7,0.9,6.8
		c0,5.1-0.9,10-2.8,14.6c-1.9,4.6-4.3,8.9-7.4,12.8c-3.1,3.9-6.6,7.5-10.5,10.6c-4,3.1-8.1,5.8-12.3,8c-4.3,2.2-8.5,3.9-12.8,5.1
		c-4.3,1.2-8.2,1.8-11.8,1.8c-1.8,0-3.8-0.4-6.1-1.2c-2.3-0.8-4.3-2.1-6.3-3.7c-1.9-1.7-3.6-3.7-4.9-6.2c-1.3-2.5-2-5.4-2-8.7
		c0-1.8,0.4-3.1,1.1-3.8c0.7-0.8,1.6-1.1,2.4-1.1c0.9,0.1,1.7,0.5,2.4,1.3c0.7,0.8,1.1,1.9,1.1,3.3c0,1.3,0.4,2.3,1.1,3.2
		c0.7,0.9,1.6,1.5,2.6,2c1,0.5,2.1,0.8,3.3,1c1.1,0.2,2.1,0.3,2.9,0.3c2.2,0,4.8-0.5,7.7-1.6c2.9-1,5.8-2.5,8.9-4.3
		c3-1.8,6-4,8.9-6.4c2.9-2.5,5.5-5.1,7.8-8c2.3-2.8,4.1-5.8,5.6-8.9c1.4-3.1,2.1-6.2,2.1-9.3c0-2.1-0.1-4-0.3-5.8
		c-0.2-1.8-0.7-3.4-1.3-4.8c-0.7-1.4-1.6-2.4-2.8-3.2c-1.2-0.8-2.7-1.2-4.7-1.2c-4.4,0-8.6,0.5-12.5,1.6c-3.9,1-7.4,2.2-10.4,3.4
		c-3,1.2-5.6,2.3-7.6,3.3c-2,1-3.4,1.5-4.2,1.5c-1.5,0-2.9-0.3-4.4-1c-1.4-0.7-2.7-1.5-3.8-2.6c-1.1-1.1-2-2.2-2.7-3.5
		c-0.7-1.3-1.1-2.5-1.1-3.7c0-3,0.9-6.2,2.6-9.7c1.7-3.5,4.1-7,6.9-10.5c2.9-3.5,6.2-6.9,10-10.1s7.7-6.1,11.8-8.6
		c4.1-2.5,8.2-4.5,12.3-6.1C56.5,8,60.4,7.2,64,7.2z"/>
	<path fill="#F6F6F6" d="M127.2,57.4c2.4,1.6,4.3,4.1,5.8,7.6c1.5,3.5,2.5,7.5,3.1,11.8c0.6,4.4,0.6,8.9,0.1,13.5
		c-0.5,4.6-1.5,8.8-3.1,12.7c-1.6,3.8-3.8,7-6.6,9.4c-2.8,2.5-6.2,3.7-10.3,3.7c-1.6,0-3.2-0.2-4.6-0.7c-1.4-0.4-2.6-0.9-3.3-1.4
		c-0.8-0.5-1.1-0.9-1-1.4c0.1-0.4,0.9-0.7,2.5-0.7c2.3,0,4.2-1.2,5.7-3.7c1.5-2.5,2.6-5.6,3.4-9.3c0.8-3.7,1.3-7.7,1.5-12
		c0.2-4.3,0.3-8.3,0.1-12c-0.1-3.7-0.5-6.8-1-9.3c-0.5-2.5-1.1-3.7-1.7-3.7c-1.2,0-2.4,0.7-3.5,2.2c-1.1,1.4-2.3,3.3-3.3,5.7
		c-1.1,2.3-2.1,5-3.1,7.9c-1,2.9-1.9,5.8-2.7,8.8c-0.8,2.9-1.6,5.7-2.2,8.3c-0.7,2.6-1.2,4.8-1.6,6.6c-0.2,5.6-0.3,11.3-0.3,17.3
		c0,7.2,0.4,13,1.2,17.5c0.8,4.5,1.6,8,2.3,10.6c0.7,2.6,1.1,4.3,1.3,5.2c0.1,0.9-0.5,1.4-1.9,1.4c-2.8,0-5.2-1.4-7.3-4.2
		c-2-2.8-3.7-6.5-5-11.2c-1.3-4.6-2.3-9.9-3-15.8c-0.7-5.9-1.1-12-1.3-18.2c-0.1-6.2-0.1-12.2,0.2-18.2c0.3-5.9,0.7-11.2,1.3-15.8
		c0.6-4.6,1.4-8.3,2.2-11.2c0.9-2.8,1.8-4.2,2.8-4.2c1,0,2.1,0,3.3,0.1c1.2,0,2.3,0.2,3.2,0.5c1,0.3,1.8,0.8,2.4,1.4
		c0.6,0.6,0.9,1.5,0.9,2.6c0,1.3-0.2,4-0.5,8.2c-0.3,4.2-0.7,9.4-1.1,15.6c0.7-2.7,1.4-5.3,2.1-8.1c0.7-2.7,1.5-5.2,2.3-7.4
		c0.8-2.3,1.6-4.2,2.3-5.9c0.8-1.7,1.5-2.9,2.2-3.7c0.9-0.9,2.2-1.5,3.8-1.8c1.7-0.3,3.3-0.4,5.1-0.3c1.7,0.1,3.2,0.3,4.6,0.7
		C125.9,56.9,126.8,57.2,127.2,57.4z"/>
	<path fill="#F6F6F6" d="M205.6,76.1c0.1-0.6,0.4-1,0.8-1.3c0.4-0.3,0.7-0.4,1.1-0.3c0.3,0,0.6,0.2,0.8,0.6c0.2,0.4,0.2,0.9,0.1,1.6
		c-0.1,0.4-0.4,1.8-1.1,3.9c-0.6,2.2-1.5,4.8-2.5,7.9c-1,3.1-2.2,6.4-3.6,9.9c-1.3,3.6-2.8,6.9-4.3,10c-1.5,3.1-3.1,5.8-4.7,8.1
		c-1.6,2.3-3.2,3.7-4.8,4.2c-0.4,0.2-1,0.3-1.8,0.3c-1.8,0-3.3-0.5-4.6-1.6c-1.3-1.1-2.4-2.4-3.4-4c-1-1.6-1.8-3.3-2.5-5.2
		c-0.7-1.9-1.2-3.6-1.7-5.2c-0.4-1.6-0.8-2.9-1-4c-0.2-1.1-0.4-1.6-0.6-1.6c-0.1,0-0.4,0.4-0.7,1.3c-0.3,0.9-0.8,1.9-1.3,3.1
		c-0.6,1.2-1.2,2.6-1.9,4.1c-0.7,1.5-1.6,2.8-2.6,4.1c-1,1.2-2.1,2.3-3.3,3.1c-1.2,0.9-2.6,1.3-4.1,1.3c-2.2,0-4.3-0.4-6.2-1.2
		c-1.9-0.8-3.6-2-5.1-3.7c-1.4-1.7-2.6-3.9-3.4-6.6c-0.8-2.7-1.2-6-1.2-9.8c0-3.6,0.5-7.7,1.5-12.1c1-4.4,2.5-8.6,4.6-12.5
		c2-3.9,4.6-7.1,7.6-9.8c3-2.6,6.6-3.9,10.8-3.9c2.9,0,5.5,0.1,7.9,0.3c2.4,0.2,4.4,0.8,6.2,1.8c1.7,1,3.1,2.6,4.1,4.8
		c1,2.2,1.4,5.3,1.4,9.4c0,0.4-0.2,0.7-0.6,1.1c-0.4,0.3-0.9,0.6-1.4,0.7c-0.5,0.1-1,0.1-1.4-0.1c-0.4-0.2-0.6-0.6-0.6-1.2
		c0-0.7-0.1-1.6-0.2-2.9c-0.1-1.3-0.4-2.5-0.7-3.8c-0.4-1.3-0.9-2.4-1.5-3.4c-0.6-1-1.5-1.4-2.5-1.4c-2.7,0-5.3,1.1-7.8,3.4
		c-2.5,2.3-4.7,5.3-6.6,9c-1.9,3.8-3.4,8.1-4.5,12.9c-1.1,4.8-1.7,9.8-1.7,14.9c0,1,0,2.2,0.1,3.4c0.1,1.3,0.2,2.4,0.5,3.5
		c0.3,1.1,0.6,2,1.2,2.7c0.5,0.7,1.2,1.1,2,1.1c0.5,0,1.1-0.6,1.9-1.7c0.7-1.1,1.5-2.6,2.3-4.5c0.8-1.8,1.5-3.9,2.3-6.1
		c0.7-2.2,1.4-4.4,1.9-6.6c0.6-2.1,1-4.1,1.4-5.9c0.4-1.8,0.6-3.2,0.6-4.2c0-0.5,0-1.1,0.1-1.9c0.1-0.7,0.3-1.4,0.7-2.1
		c0.4-0.6,1.1-1.2,1.9-1.6s2.2-0.7,3.9-0.7c3.4,0,5.8,0.6,7.3,1.8c1.5,1.2,2.2,2.4,2.2,3.6v1.8c0.1,1.9,0.1,4.5,0.1,7.7
		s0.1,6.4,0.3,9.5c0.2,3.1,0.5,5.9,0.9,8.2c0.4,2.3,1.1,3.4,2,3.4c0.4,0,1-0.9,1.9-2.6c0.9-1.7,1.9-3.9,2.9-6.6
		c1.1-2.6,2.2-5.5,3.4-8.7c1.2-3.1,2.3-6.1,3.3-8.9c1-2.8,1.8-5.2,2.6-7.2C205,77.8,205.4,76.5,205.6,76.1z"/>
	<path fill="#F6F6F6" d="M216.6,116.1c-2.8,0-5.3-0.8-7.6-2.6c-2.2-1.7-4.1-4-5.7-6.8c-1.6-2.8-2.8-6-3.7-9.6
		c-0.9-3.6-1.3-7.3-1.3-11c0-3,0.3-5.9,1-8.7c0.7-2.8,1.5-5.3,2.5-7.7c1-2.3,2-4.3,3.1-6.1c1.1-1.7,2.1-3,2.9-3.8
		c0.8-0.9,1.9-1.6,3.4-2.1c1.4-0.5,2.9-0.8,4.4-1c1.5-0.1,2.9-0.1,4.2,0.1c1.3,0.2,2.3,0.6,2.9,1.2c0.6,0.6,1.3,1.7,2.1,3.3
		c0.8,1.6,1.4,3.3,2,5.1c0.6,1.7,0.9,3.3,0.9,4.6c0.1,1.3-0.3,2-1.2,2c-0.9,0-1.6-0.5-2.2-1.5c-0.6-1-1.1-2.1-1.7-3.3
		c-0.5-1.2-1-2.3-1.4-3.4c-0.4-1-0.9-1.6-1.4-1.6c-1.3,0-2.4,1.1-3.3,3.3c-1,2.2-1.7,4.9-2.3,8.2c-0.6,3.3-1,6.9-1.2,10.7
		c-0.2,3.8-0.1,7.4,0.3,10.7c0.4,3.3,1.1,6,2.1,8.2c1,2.2,2.3,3.3,4.1,3.3c2,0,3.8-0.5,5.4-1.6c1.6-1,3-2.3,4.2-3.9
		c1.2-1.6,2.3-3.3,3.2-5.2c0.9-1.9,1.6-3.7,2.2-5.4c0.6-1.7,1.1-3.2,1.4-4.4c0.4-1.3,0.7-2.1,0.9-2.4c0.3-0.5,0.7-0.9,1.2-1.2
		c0.5-0.3,1-0.5,1.4-0.5c0.4,0,0.7,0.1,0.9,0.4c0.2,0.3,0.1,0.7-0.2,1.3c-0.2,0.4-0.6,1.5-1.1,3.2c-0.5,1.7-1.1,3.7-2,6
		c-0.9,2.3-1.9,4.8-3.2,7.4c-1.3,2.6-2.7,5-4.4,7.1c-1.7,2.1-3.6,3.9-5.7,5.4C221.6,115.3,219.2,116.1,216.6,116.1z"/>
	<path fill="#F6F6F6" d="M283.6,82.6c0.2-0.5,0.5-0.9,0.8-1.1c0.3-0.2,0.6-0.2,0.9-0.1c0.3,0.1,0.5,0.4,0.7,0.7
		c0.1,0.4,0.1,0.9-0.1,1.4c-0.1,0.4-0.4,1.4-0.9,2.9c-0.4,1.6-1.1,3.5-1.9,5.7c-0.9,2.2-1.9,4.5-3.2,6.9c-1.3,2.4-2.8,4.7-4.6,6.8
		c-1.8,2.1-3.8,3.8-6.2,5.1c-2.3,1.3-4.9,2-7.8,2c-3.8,0-7.3-0.8-10.4-2.3c-3.1-1.6-5.7-3.6-7.8-6c-2.1-2.4-3.7-5.1-4.8-8
		c-1.1-2.9-1.7-5.8-1.7-8.6c0-3.6,0.4-7.1,1.2-10.5c0.8-3.4,1.8-6.5,3-9.3c1.2-2.8,2.5-5.3,3.8-7.3c1.4-2.1,2.6-3.6,3.7-4.7
		c1.1-1,2.6-1.7,4.3-2.2c1.8-0.5,3.6-0.7,5.4-0.8c1.8,0,3.5,0.1,5.2,0.3c1.6,0.2,2.9,0.6,3.8,1c1.7,0.8,3.1,2.4,4.2,4.7
		c1.1,2.3,1.6,5.1,1.6,8.2c0,5.8-1.2,10.3-3.7,13.3c-2.4,3-5.5,4.5-9.1,4.5c-1.3,0-2.7-0.1-4.2-0.4c-1.4-0.3-2.8-0.6-3.9-1
		c-0.2,2.7,0,5.4,0.7,8.1c0.7,2.7,1.6,5,2.7,7.1c1.1,2.1,2.5,3.8,4,5.1c1.5,1.3,3.1,1.9,4.6,1.9c2.4,0,4.5-0.5,6.3-1.6
		c1.8-1.1,3.5-2.4,4.9-4.1c1.4-1.6,2.7-3.4,3.7-5.3c1-1.9,1.8-3.8,2.6-5.5c0.7-1.7,1.2-3.3,1.6-4.6
		C283.2,83.7,283.5,82.9,283.6,82.6z M262.7,63c-1.5,0-2.8,0.5-4,1.6c-1.2,1-2.2,2.4-3.1,4.1c-0.9,1.7-1.6,3.7-2.2,5.9
		c-0.6,2.2-1,4.6-1.3,7c2.4,1,4.4,1.3,6.1,0.7c1.7-0.6,3.1-1.5,4.2-2.9c1.1-1.4,1.9-3,2.4-4.9c0.5-1.9,0.8-3.7,0.8-5.4
		c0-1.7-0.2-3.1-0.7-4.3C264.4,63.6,263.7,63,262.7,63z"/>
	<path fill="#F6F6F6" d="M19.9,191.5c0.8,0.6,1.5,1.5,2.1,2.7c0.6,1.3,0.9,2.7,1.2,4.2c0.2,1.6,0.3,3.2,0.1,4.8
		c-0.1,1.6-0.5,3.2-1,4.5c-0.5,1.4-1.3,2.5-2.3,3.4c-1,0.9-2.2,1.3-3.6,1.3c-0.6,0-1.1-0.1-1.6-0.2c-0.5-0.2-0.8-0.3-1-0.5
		c-0.2-0.2-0.3-0.3-0.2-0.5c0.1-0.2,0.4-0.2,1-0.2c0.8,0,1.5-0.4,2-1.3c0.5-0.9,0.9-2,1.2-3.3c0.3-1.3,0.5-2.8,0.6-4.3
		c0.1-1.5,0.1-3,0-4.3c-0.1-1.3-0.2-2.4-0.4-3.3c-0.2-0.9-0.4-1.3-0.6-1.3c-0.4,0-0.9,0.3-1.3,0.9c-0.4,0.6-0.9,1.4-1.3,2.3
		c-0.4,0.9-0.8,2-1.1,3.1c-0.4,1.1-0.7,2.3-1,3.3c-0.3,1.1-0.6,2.1-0.8,3c-0.2,0.9-0.4,1.6-0.5,2.1c0.3,0.7,0.5,1.2,0.8,1.7
		c0.3,0.4,0.5,0.8,0.6,1.1c0.1,0.3,0.2,0.5,0.2,0.6c0,0.1-0.2,0.2-0.5,0.2c-1.5,0-2.7-0.4-3.7-1.3c-0.9-0.9-1.7-2-2.2-3.4
		c-0.5-1.4-0.9-3-1.1-4.8c-0.2-1.8-0.3-3.6-0.3-5.5c0-0.8,0-1.8,0.1-2.9c0.1-1.1,0.2-2.1,0.3-3.2c0.1-1.1,0.2-2.1,0.3-3.1
		c0.1-1,0.2-2,0.3-2.8c0.1-0.8,0.2-1.5,0.3-2c0.1-0.5,0.1-0.8,0.1-0.9c0-0.1,0-0.3,0.1-0.6c0.1-0.2,0.3-0.4,0.7-0.4
		c0.2,0,0.5,0.1,1,0.2c0.5,0.1,0.9,0.3,1.4,0.6c0.5,0.2,0.9,0.5,1.3,0.8c0.4,0.3,0.6,0.6,0.6,1c0,0.3-0.1,1-0.3,2
		c-0.2,1-0.4,2.3-0.6,3.8c-0.2,1.5-0.4,3.2-0.5,5.2c-0.2,1.9-0.2,4-0.2,6.2c0,1.2,0.1,2.2,0.2,3.1c0.1,0.9,0.3,1.7,0.5,2.4
		c0.2-1,0.4-2.3,0.7-3.7c0.3-1.5,0.7-2.9,1.1-4.4c0.4-1.4,0.8-2.7,1.2-3.9c0.4-1.1,0.9-1.9,1.2-2.3c0.3-0.3,0.7-0.5,1.2-0.6
		c0.5-0.1,1-0.1,1.5-0.1c0.5,0,0.9,0.1,1.3,0.2C19.5,191.3,19.8,191.4,19.9,191.5z"/>
	<path fill="#F6F6F6" d="M39.1,194.3c0,0.7,0,1.9,0.1,3.5c0.1,1.6,0.1,3.8,0.1,6.7c0,2.4-0.3,4.7-1,6.8c-0.7,2.2-1.5,4.1-2.6,5.7
		c-1.1,1.6-2.3,2.9-3.7,3.8c-1.4,0.9-2.9,1.3-4.4,1.1c-0.8-0.1-1.4-0.3-2-0.5c-0.6-0.3-1.1-0.6-1.5-0.9c-0.4-0.3-0.7-0.7-0.9-1
		c-0.2-0.4-0.3-0.7-0.3-1c0-0.3,0.1-0.4,0.4-0.4c0.2,0,0.5,0.1,0.8,0.3s0.7,0.4,1.2,0.6c0.5,0.2,1,0.4,1.5,0.4
		c0.6,0.1,1.3-0.2,2.1-0.7c0.9-0.5,1.7-1.3,2.5-2.3c0.8-1,1.5-2.4,2.1-3.9c0.6-1.6,0.9-3.4,0.9-5.5c0-1,0-2.1,0-3.2
		c0-1.2,0-2.4-0.1-3.6c-0.2,0.8-0.4,1.7-0.6,2.8c-0.3,1.1-0.6,2.2-0.9,3.2c-0.3,1.1-0.6,2-1,2.9c-0.3,0.9-0.7,1.5-1,1.8
		c0,0.1-0.1,0.2-0.3,0.2c0,0-0.1,0-0.1,0c0,0-0.1,0-0.1,0c-0.4,0.1-0.9,0-1.5-0.2c-0.6-0.2-1.2-0.6-1.8-1.1
		c-0.6-0.6-1.1-1.3-1.5-2.3c-0.4-0.9-0.6-2.1-0.6-3.6c0-1.1,0.1-2.3,0.2-3.6c0.1-1.3,0.2-2.6,0.4-3.8c0.1-1.2,0.3-2.3,0.4-3.2
		c0.1-0.9,0.2-1.6,0.2-1.9c0-0.2,0-0.5-0.1-0.7c-0.1-0.3-0.2-0.5-0.2-0.7c0-0.2,0-0.4,0.1-0.5c0.1-0.1,0.4-0.2,0.9-0.2
		c0.5,0,1,0.1,1.6,0.2c0.6,0.1,1.1,0.3,1.5,0.6c0.4,0.2,0.8,0.5,1.1,0.8c0.3,0.3,0.4,0.7,0.4,1c0,0.4-0.1,0.9-0.2,1.7
		c-0.2,0.7-0.3,1.6-0.5,2.7c-0.2,1-0.4,2.2-0.5,3.4s-0.2,2.6-0.2,4c0,1.4,0.1,2.5,0.2,3.3c0.1,0.8,0.3,1.4,0.4,1.9
		c0.1-0.4,0.3-1,0.6-1.8c0.3-0.8,0.5-1.7,0.8-2.6c0.3-1,0.6-2,0.9-3c0.3-1,0.6-2,0.9-3c0.3-1,0.5-1.8,0.6-2.6
		c0.2-0.8,0.2-1.3,0.2-1.7v-0.3c0-0.2,0-0.5-0.1-0.7c-0.1-0.3-0.2-0.5-0.2-0.7c0-0.2,0-0.4,0.1-0.5c0.1-0.1,0.4-0.2,0.9-0.2
		c0.5,0,1,0.1,1.5,0.2c0.5,0.1,0.9,0.3,1.3,0.6c0.4,0.2,0.7,0.5,0.9,0.8C39,193.6,39.1,193.9,39.1,194.3z"/>
	<path fill="#F6F6F6" d="M64.1,171.8c1.3,0,2.4,0.5,3.4,1.4c1,1,1.9,2.3,2.6,3.9c0.7,1.6,1.3,3.5,1.7,5.7c0.4,2.2,0.7,4.5,0.8,7
		c0.1,2.5,0.1,5-0.2,7.6c-0.2,2.6-0.6,5.1-1.1,7.6c-0.6,2.5-1.3,4.8-2.2,7c-0.9,2.2-2,4.1-3.3,5.7c-1.3,1.6-2.7,2.9-4.4,3.9
		c-1.6,1-3.5,1.4-5.6,1.4c-1.2,0-2.2-0.2-3-0.7s-1.6-1.1-2.1-1.8c-0.6-0.7-1-1.4-1.4-2.2c-0.3-0.8-0.6-1.5-0.8-2.1
		c-0.1-0.3-0.1-0.5,0.1-0.7c0.1-0.2,0.3-0.3,0.5-0.4c0.2-0.1,0.4-0.1,0.6,0c0.2,0.1,0.3,0.2,0.4,0.4c0.1,0.5,0.3,0.9,0.5,1.4
		s0.5,0.9,0.8,1.3c0.3,0.4,0.8,0.7,1.2,1c0.5,0.2,1.1,0.4,1.7,0.4c1.4,0,2.7-0.4,3.8-1.3c1.1-0.9,2.1-2,3-3.5
		c0.9-1.5,1.6-3.2,2.3-5.1c0.6-2,1.2-4,1.6-6.2c0.4-2.2,0.8-4.5,1-6.8c0.2-2.3,0.4-4.6,0.4-6.8c0.1-2.2,0-4.3-0.1-6.2
		c-0.1-2-0.3-3.7-0.5-5.1c-0.2-1.5-0.5-2.6-0.9-3.5c-0.3-0.9-0.7-1.3-1.1-1.3c-1.3,0-2.6,0.3-3.7,0.8c-1.1,0.6-2.2,1.3-3.1,2.2
		c-0.9,0.9-1.8,1.9-2.5,3c-0.7,1.1-1.3,2.3-1.8,3.5s-0.9,2.3-1.1,3.4c-0.3,1.1-0.4,2.1-0.4,2.9c0,0.8,0,1.4,0,1.7
		c0,0.3-0.1,0.4-0.3,0.4c-0.1,0-0.3,0-0.5-0.1c-0.2-0.1-0.4-0.2-0.7-0.4c-0.2-0.2-0.4-0.4-0.6-0.7s-0.2-0.6-0.2-1
		c0.2-2.5,0.8-4.8,1.7-6.9c0.9-2.2,2.1-4,3.5-5.6c1.4-1.6,2.9-2.9,4.7-3.8C60.7,172.2,62.4,171.8,64.1,171.8z"/>
	<path fill="#F6F6F6" d="M83.9,190.3c0.6,0,1.1,0.1,1.6,0.4c0.5,0.3,0.9,0.8,1.3,1.4c0.4,0.7,0.7,1.5,0.9,2.6c0.2,1,0.3,2.3,0.3,3.8
		c0,1.5-0.1,3-0.4,4.6c-0.3,1.5-0.7,2.9-1.3,4.2c-0.6,1.2-1.3,2.3-2.2,3c-0.9,0.8-2,1.2-3.3,1.2c-1.2,0-2.1-0.3-2.9-0.9
		c-0.8-0.6-1.3-1.3-1.8-2.3c-0.4-0.9-0.7-1.9-0.9-3c-0.2-1.1-0.2-2.1-0.2-3.1c0-0.9,0.1-1.9,0.2-2.9c0.1-1,0.3-1.9,0.6-2.8
		c0.3-0.8,0.6-1.6,1.1-2.2c0.5-0.6,1.1-1,1.8-1.1c0.2-0.7,0.6-1.2,0.9-1.6c0.4-0.4,0.8-0.7,1.3-0.9c0.5-0.2,1-0.3,1.5-0.4
		C83,190.3,83.5,190.3,83.9,190.3z M82.9,209.4c0.4,0,0.8-0.4,1.2-1.2c0.4-0.8,0.7-1.9,1-3.1c0.3-1.2,0.5-2.6,0.7-4
		c0.1-1.4,0.2-2.8,0.1-4c-0.1-1.2-0.3-2.3-0.6-3.1c-0.3-0.8-0.9-1.2-1.6-1.2c-0.3,0-0.5,0.2-0.7,0.7c-0.1,0.4-0.3,1-0.4,1.6
		c-0.1,0.6-0.2,1.2-0.4,1.8c-0.2,0.6-0.4,1.1-0.8,1.4c0,1.2,0,2.4-0.1,3.8s-0.1,2.5-0.1,3.7c0,1.1,0.1,2,0.4,2.8
		C81.8,209,82.3,209.4,82.9,209.4z"/>
	<path fill="#F6F6F6" d="M108.8,191.7c0,0.3-0.1,0.8-0.2,1.4c-0.1,0.6-0.2,1.4-0.4,2.2c-0.1,0.8-0.3,1.7-0.5,2.6
		c-0.2,0.9-0.3,1.8-0.5,2.7c-0.1,0.9-0.3,1.7-0.4,2.5c-0.1,0.8-0.2,1.4-0.2,1.9c0,1.5,0,2.6,0.1,3.4c0.1,0.8,0.2,1.4,0.3,1.8
		c0.1,0.4,0.2,0.7,0.3,0.9c0.1,0.2,0.1,0.4,0.1,0.7c0,0.3-0.3,0.4-0.9,0.4c-0.6,0-1.3-0.2-2.1-0.7c-0.8-0.4-1.4-1.2-2.1-2.2
		c-0.6-1-0.9-2.3-0.9-4c0-1.1,0-2.2,0.1-3.4c0.1-1.2,0.2-2.3,0.3-3.4c0.1-1.1,0.3-2.2,0.5-3.2c0.2-1,0.3-1.9,0.5-2.7
		c-0.3,0.7-0.6,1.6-1,2.7c-0.4,1.1-0.7,2.2-1.1,3.4s-0.8,2.5-1.1,3.7c-0.4,1.3-0.8,2.4-1.1,3.5c-0.4,1.1-0.7,2.1-1,2.9
		c-0.3,0.8-0.6,1.5-0.9,1.8c0,0.2-0.1,0.3-0.3,0.4h-0.1c-0.2,0.1-0.3,0.1-0.5,0.1c-1,0-1.7-0.3-2.4-1c-0.6-0.7-1.1-1.5-1.5-2.5
		c-0.4-1-0.7-2.1-0.9-3.3c-0.2-1.2-0.3-2.3-0.4-3.3c-0.1-1-0.1-1.9-0.1-2.7c0-0.7,0-1.1,0-1.2c0-0.2,0-0.3-0.1-0.4
		c0-0.1-0.1-0.1-0.2-0.2c-0.1-0.1-0.1-0.1-0.2-0.2c0-0.1-0.1-0.2-0.1-0.4c0-0.2,0.3-0.3,0.9-0.4c0.6-0.1,1.3-0.1,2-0.1
		c0.7,0.1,1.4,0.3,2,0.6c0.6,0.3,0.9,0.8,0.9,1.4c0,0.2,0,0.6,0,1.2c0,0.6,0,1.2-0.1,1.9c0,0.7,0,1.3-0.1,2c0,0.6,0,1.1,0,1.4
		c0,0.5,0,1,0.1,1.5c0,0.4,0.1,0.9,0.1,1.3c0.2-0.8,0.5-1.8,0.9-2.9c0.4-1.1,0.7-2.2,1.1-3.4c0.4-1.2,0.9-2.3,1.3-3.5
		c0.5-1.2,1-2.2,1.4-3.2c0.5-1,1-1.8,1.5-2.6c0.5-0.7,1-1.2,1.5-1.5c0.1-0.1,0.2-0.1,0.3-0.2c0.1,0,0.2,0,0.2-0.1c0.1,0,0.1,0,0.2,0
		c0.1,0,0.3,0,0.4,0c0.1,0,0.2,0,0.4,0c0.6,0,1,0.1,1.1,0.2c0.6,0.2,1.2,0.5,1.7,0.8C108.5,190.8,108.8,191.3,108.8,191.7z"/>
	<path fill="#F6F6F6" d="M132.8,197c0.1-0.2,0.1-0.4,0.3-0.5c0.1-0.1,0.3-0.1,0.4-0.1c0.1,0,0.2,0.1,0.3,0.2c0.1,0.1,0.1,0.3,0,0.6
		c0,0.2-0.2,0.6-0.4,1.4c-0.2,0.8-0.5,1.7-0.9,2.8c-0.4,1.1-0.8,2.3-1.3,3.5s-1,2.5-1.5,3.6c-0.5,1.1-1.1,2.1-1.7,2.9
		c-0.6,0.8-1.1,1.3-1.7,1.5c-0.1,0.1-0.3,0.1-0.6,0.1c-0.6,0-1.2-0.2-1.6-0.6c-0.5-0.4-0.9-0.9-1.2-1.4c-0.4-0.6-0.7-1.2-0.9-1.9
		c-0.2-0.7-0.4-1.3-0.6-1.9c-0.2-0.6-0.3-1-0.4-1.4c-0.1-0.4-0.1-0.6-0.2-0.6s-0.1,0.2-0.3,0.5c-0.1,0.3-0.3,0.7-0.5,1.1
		c-0.2,0.4-0.4,0.9-0.7,1.4c-0.3,0.5-0.6,1-0.9,1.4c-0.3,0.4-0.7,0.8-1.2,1.1c-0.4,0.3-0.9,0.5-1.4,0.5c-0.8,0-1.5-0.1-2.2-0.4
		c-0.7-0.3-1.3-0.7-1.8-1.3c-0.5-0.6-0.9-1.4-1.2-2.4c-0.3-1-0.4-2.1-0.4-3.5c0-1.3,0.2-2.7,0.5-4.3c0.4-1.6,0.9-3.1,1.6-4.5
		c0.7-1.4,1.6-2.5,2.7-3.5c1.1-0.9,2.4-1.4,3.8-1.4c1,0,2,0,2.8,0.1c0.8,0.1,1.6,0.3,2.2,0.6c0.6,0.4,1.1,0.9,1.4,1.7
		c0.3,0.8,0.5,1.9,0.5,3.3c0,0.1-0.1,0.3-0.2,0.4c-0.1,0.1-0.3,0.2-0.5,0.2c-0.2,0-0.4,0-0.5,0c-0.1-0.1-0.2-0.2-0.2-0.4
		c0-0.2,0-0.6-0.1-1c0-0.4-0.1-0.9-0.3-1.4c-0.1-0.5-0.3-0.9-0.5-1.2c-0.2-0.3-0.5-0.5-0.9-0.5c-1,0-1.9,0.4-2.8,1.2
		c-0.9,0.8-1.7,1.9-2.3,3.2s-1.2,2.9-1.6,4.6c-0.4,1.7-0.6,3.5-0.6,5.3c0,0.4,0,0.8,0,1.2c0,0.4,0.1,0.9,0.2,1.2
		c0.1,0.4,0.2,0.7,0.4,1c0.2,0.3,0.4,0.4,0.7,0.4c0.2,0,0.4-0.2,0.7-0.6c0.3-0.4,0.5-0.9,0.8-1.6c0.3-0.7,0.5-1.4,0.8-2.2
		c0.3-0.8,0.5-1.6,0.7-2.3c0.2-0.8,0.4-1.5,0.5-2.1c0.1-0.6,0.2-1.1,0.2-1.5c0-0.2,0-0.4,0-0.7c0-0.3,0.1-0.5,0.3-0.7
		c0.1-0.2,0.4-0.4,0.7-0.6s0.8-0.2,1.4-0.2c1.2,0,2.1,0.2,2.6,0.7c0.5,0.4,0.8,0.9,0.8,1.3v0.6c0,0.7,0,1.6,0,2.8
		c0,1.1,0,2.3,0.1,3.4c0.1,1.1,0.2,2.1,0.3,2.9c0.2,0.8,0.4,1.2,0.7,1.2c0.1,0,0.4-0.3,0.7-0.9c0.3-0.6,0.7-1.4,1-2.3
		c0.4-0.9,0.8-2,1.2-3.1c0.4-1.1,0.8-2.2,1.2-3.2c0.4-1,0.7-1.8,0.9-2.6C132.6,197.5,132.7,197.1,132.8,197z"/>
	<path fill="#F6F6F6" d="M153.7,212.5c0,1.2,0,2.1,0.1,2.8c0.1,0.7,0.2,1.2,0.3,1.6c0.1,0.4,0.2,0.7,0.3,0.9
		c0.1,0.2,0.1,0.4,0.1,0.5c0,0.4-0.3,0.6-0.9,0.8c-0.6,0.1-1.3,0.1-2.1-0.2c-0.8-0.3-1.4-0.8-2.1-1.5c-0.6-0.8-0.9-1.8-0.9-3.3
		c0-1.4,0.1-3,0.2-4.6c0.1-1.6,0.3-3.2,0.5-4.8c0.2-1.5,0.3-2.9,0.5-4.1c0.1-1.2,0.2-2,0.2-2.5c0-0.5-0.1-0.9-0.2-1.2
		c-0.2-0.3-0.3-0.6-0.6-0.8c-0.2-0.2-0.5-0.4-0.8-0.6c-0.5,2.1-0.9,4.1-1.2,5.9c-0.2,0.8-0.3,1.6-0.4,2.4c-0.1,0.8-0.3,1.6-0.4,2.4
		c-0.1,0.8-0.2,1.5-0.3,2.2c-0.1,0.7-0.1,1.2-0.1,1.7c0,0.3-0.1,0.5-0.3,0.6c0,0.2-0.1,0.4-0.3,0.4c-0.2,0.1-0.7,0.1-1.3,0.1
		c-1,0-1.9-0.5-2.6-1.5c-0.7-1-1.2-2.3-1.6-4c-0.4-1.6-0.7-3.4-0.9-5.3c-0.2-2-0.3-3.9-0.3-5.7c0-0.4,0-0.9,0-1.6c0-0.6,0-1.3,0.1-2
		c0-0.7,0.1-1.4,0.1-2c0-0.7,0.1-1.3,0.1-1.8c-0.6,0.4-1.3,0.7-2.1,1.1c-0.8,0.3-1.8,0.6-2.8,0.9c-0.1,1.2-0.1,2.4-0.2,3.7
		c-0.1,1.3-0.1,2.6-0.1,3.9c0,1.3,0,2.5,0,3.6c0,1.1,0.1,2.1,0.1,2.8c0.2,1.8,0.4,3.3,0.7,4.6c0.3,1.2,0.6,2.3,0.9,3.1
		c0.3,0.8,0.6,1.5,0.9,2c0.3,0.5,0.4,0.8,0.6,1.1c0.1,0.3,0.1,0.4,0,0.5c-0.1,0.1-0.3,0.1-0.7,0.2c-0.6,0.1-1.3-0.1-2-0.6
		c-0.7-0.5-1.5-1.3-2.2-2.4c-0.7-1.1-1.3-2.4-1.9-4c-0.6-1.6-1-3.5-1.2-5.7c-0.1-0.8-0.1-1.7-0.2-2.7c0-1-0.1-2.1-0.1-3.2
		c0-1.1,0-2.2,0-3.3c0-1.1,0.1-2.1,0.1-3c-0.1,0-0.2,0-0.4,0c-1-0.1-2-0.2-2.9-0.5c-0.9-0.3-1.8-0.5-2.7-0.9c-0.8-0.3-1.6-0.7-2.3-1
		c-0.7-0.4-1.3-0.7-1.8-1c-0.4-0.3-0.6-0.5-0.5-0.8c0.1-0.2,0.3-0.3,0.6-0.3c1.4,0.2,3,0.4,4.8,0.5c1.8,0.1,3.6,0.2,5.3,0.2
		c0-0.2,0-0.2,0-0.2c0,0,0,0,0,0.1c0,0,0,0.1,0,0.1c0,0,0-0.1,0-0.2l0.2-3c0.1-1.6,0.2-3,0.3-4.2c0.1-1.2,0.1-2,0-2.4
		c-0.1-0.7,0-1.2,0.2-1.5c0.2-0.3,0.5-0.5,0.8-0.6c0.3-0.1,0.7-0.1,1.2,0.1c0.4,0.1,0.8,0.3,1.2,0.6c0.4,0.3,0.7,0.6,1,1.1
		c0.3,0.4,0.5,0.9,0.5,1.4c0.1,0.4,0.1,1,0,1.9c0,0.8-0.1,1.8-0.1,2.9l-0.2,2.7c0,0.2,0,0.4-0.1,0.5c0,0.1,0,0.1,0,0.2s0,0.1,0,0.2
		c0,0.1,0,0.3,0,0.5c0.9-0.1,1.9-0.3,2.7-0.5c0.9-0.2,1.7-0.4,2.4-0.7c0.2-1.2,0.4-2.4,0.7-3.5c0.3-1.1,0.7-2.1,1.1-3
		c0.4-0.9,1-1.6,1.6-2.1c0.6-0.5,1.3-0.8,2.1-0.8c0.4,0,0.6,0.2,0.8,0.5c0.2,0.3,0.3,0.8,0.3,1.3c0,0.6,0,1.2-0.1,1.9
		c-0.1,0.7-0.3,1.4-0.5,2.1c-0.2,0.7-0.5,1.3-0.9,2c-0.3,0.6-0.7,1.1-1.1,1.5c0,0.6-0.1,1.4-0.1,2.3c0,0.9-0.1,1.8-0.1,2.8
		c0,1,0,2-0.1,3.1s0,2.1,0,3.1c0,3.1,0.1,5.7,0.4,7.7c0.3,2,0.5,3.3,0.7,3.9c0.1-0.7,0.3-1.5,0.5-2.5c0.2-0.9,0.4-1.9,0.7-2.9
		c0.3-1,0.5-2,0.8-2.9c0.3-1,0.6-1.8,0.9-2.6c0.3-0.8,0.6-1.4,0.8-1.8c0.3-0.5,0.5-0.7,0.7-0.7c0.3,0,0.8,0.1,1.5,0.2
		c0.7,0.1,1.3,0.4,2,0.7c0.6,0.3,1.2,0.7,1.7,1.3c0.5,0.5,0.7,1.2,0.7,2c0,0.8,0,1.8-0.1,3.1c-0.1,1.2-0.2,2.5-0.2,3.8
		c-0.1,1.3-0.2,2.6-0.2,3.9C153.7,210.5,153.7,211.6,153.7,212.5z M144.6,176.6c-0.1,0-0.2,0.1-0.3,0.3c-0.1,0.2-0.2,0.5-0.3,0.9
		c-0.1,0.4-0.2,1-0.3,1.8c-0.1,0.7-0.2,1.7-0.3,2.8c0.4-0.4,0.7-1,0.9-1.6c0.2-0.7,0.4-1.3,0.5-1.9c0.1-0.6,0.1-1.1,0.1-1.6
		C144.8,176.8,144.7,176.6,144.6,176.6z"/>
	<path fill="#F6F6F6" d="M179.8,197c0.1-0.2,0.1-0.4,0.3-0.5c0.1-0.1,0.3-0.1,0.4-0.1c0.1,0,0.2,0.1,0.3,0.2c0.1,0.1,0.1,0.3,0,0.6
		c0,0.2-0.2,0.6-0.4,1.4c-0.2,0.8-0.5,1.7-0.9,2.8c-0.4,1.1-0.8,2.3-1.3,3.5s-1,2.5-1.5,3.6c-0.5,1.1-1.1,2.1-1.7,2.9
		c-0.6,0.8-1.1,1.3-1.7,1.5c-0.1,0.1-0.3,0.1-0.6,0.1c-0.6,0-1.2-0.2-1.6-0.6c-0.5-0.4-0.9-0.9-1.2-1.4c-0.4-0.6-0.7-1.2-0.9-1.9
		c-0.2-0.7-0.4-1.3-0.6-1.9c-0.2-0.6-0.3-1-0.4-1.4c-0.1-0.4-0.1-0.6-0.2-0.6s-0.1,0.2-0.3,0.5c-0.1,0.3-0.3,0.7-0.5,1.1
		c-0.2,0.4-0.4,0.9-0.7,1.4c-0.3,0.5-0.6,1-0.9,1.4c-0.3,0.4-0.7,0.8-1.2,1.1c-0.4,0.3-0.9,0.5-1.4,0.5c-0.8,0-1.5-0.1-2.2-0.4
		c-0.7-0.3-1.3-0.7-1.8-1.3c-0.5-0.6-0.9-1.4-1.2-2.4c-0.3-1-0.4-2.1-0.4-3.5c0-1.3,0.2-2.7,0.5-4.3c0.4-1.6,0.9-3.1,1.6-4.5
		c0.7-1.4,1.6-2.5,2.7-3.5c1.1-0.9,2.4-1.4,3.8-1.4c1,0,2,0,2.8,0.1c0.8,0.1,1.6,0.3,2.2,0.6c0.6,0.4,1.1,0.9,1.4,1.7
		c0.3,0.8,0.5,1.9,0.5,3.3c0,0.1-0.1,0.3-0.2,0.4c-0.1,0.1-0.3,0.2-0.5,0.2c-0.2,0-0.4,0-0.5,0c-0.1-0.1-0.2-0.2-0.2-0.4
		c0-0.2,0-0.6-0.1-1c0-0.4-0.1-0.9-0.3-1.4c-0.1-0.5-0.3-0.9-0.5-1.2c-0.2-0.3-0.5-0.5-0.9-0.5c-1,0-1.9,0.4-2.8,1.2
		c-0.9,0.8-1.7,1.9-2.3,3.2c-0.7,1.3-1.2,2.9-1.6,4.6c-0.4,1.7-0.6,3.5-0.6,5.3c0,0.4,0,0.8,0,1.2c0,0.4,0.1,0.9,0.2,1.2
		c0.1,0.4,0.2,0.7,0.4,1c0.2,0.3,0.4,0.4,0.7,0.4c0.2,0,0.4-0.2,0.7-0.6c0.3-0.4,0.5-0.9,0.8-1.6c0.3-0.7,0.5-1.4,0.8-2.2
		c0.3-0.8,0.5-1.6,0.7-2.3c0.2-0.8,0.4-1.5,0.5-2.1c0.1-0.6,0.2-1.1,0.2-1.5c0-0.2,0-0.4,0-0.7c0-0.3,0.1-0.5,0.3-0.7
		c0.1-0.2,0.4-0.4,0.7-0.6s0.8-0.2,1.4-0.2c1.2,0,2.1,0.2,2.6,0.7c0.5,0.4,0.8,0.9,0.8,1.3v0.6c0,0.7,0,1.6,0,2.8
		c0,1.1,0,2.3,0.1,3.4c0.1,1.1,0.2,2.1,0.3,2.9c0.2,0.8,0.4,1.2,0.7,1.2c0.1,0,0.4-0.3,0.7-0.9c0.3-0.6,0.7-1.4,1-2.3
		c0.4-0.9,0.8-2,1.2-3.1c0.4-1.1,0.8-2.2,1.2-3.2c0.4-1,0.7-1.8,0.9-2.6C179.6,197.5,179.8,197.1,179.8,197z"/>
	<path fill="#F6F6F6" d="M195.5,191.7c0,0.3-0.1,0.8-0.2,1.4c-0.1,0.6-0.2,1.4-0.4,2.2c-0.1,0.8-0.3,1.7-0.5,2.6
		c-0.2,0.9-0.3,1.8-0.5,2.7c-0.1,0.9-0.3,1.7-0.4,2.5c-0.1,0.8-0.2,1.4-0.2,1.9c0,1.5,0,2.6,0.1,3.4c0.1,0.8,0.2,1.4,0.3,1.8
		c0.1,0.4,0.2,0.7,0.3,0.9c0.1,0.2,0.1,0.4,0.1,0.7c0,0.3-0.3,0.4-0.9,0.4c-0.6,0-1.3-0.2-2.1-0.7c-0.8-0.4-1.4-1.2-2.1-2.2
		c-0.6-1-0.9-2.3-0.9-4c0-1.1,0-2.2,0.1-3.4c0.1-1.2,0.2-2.3,0.3-3.4c0.1-1.1,0.3-2.2,0.5-3.2c0.2-1,0.3-1.9,0.5-2.7
		c-0.3,0.7-0.6,1.6-1,2.7c-0.4,1.1-0.7,2.2-1.1,3.4c-0.4,1.2-0.8,2.5-1.1,3.7c-0.4,1.3-0.8,2.4-1.1,3.5c-0.4,1.1-0.7,2.1-1,2.9
		c-0.3,0.8-0.6,1.5-0.9,1.8c0,0.2-0.1,0.3-0.3,0.4h-0.1c-0.2,0.1-0.3,0.1-0.5,0.1c-1,0-1.7-0.3-2.4-1c-0.6-0.7-1.1-1.5-1.5-2.5
		c-0.4-1-0.7-2.1-0.9-3.3c-0.2-1.2-0.3-2.3-0.4-3.3c-0.1-1-0.1-1.9-0.1-2.7c0-0.7,0-1.1,0-1.2c0-0.2,0-0.3-0.1-0.4
		c0-0.1-0.1-0.1-0.2-0.2c-0.1-0.1-0.1-0.1-0.2-0.2c0-0.1-0.1-0.2-0.1-0.4c0-0.2,0.3-0.3,0.9-0.4c0.6-0.1,1.3-0.1,2-0.1
		c0.7,0.1,1.4,0.3,2,0.6c0.6,0.3,0.9,0.8,0.9,1.4c0,0.2,0,0.6,0,1.2c0,0.6,0,1.2-0.1,1.9c0,0.7,0,1.3-0.1,2c0,0.6,0,1.1,0,1.4
		c0,0.5,0,1,0.1,1.5c0,0.4,0.1,0.9,0.1,1.3c0.2-0.8,0.5-1.8,0.9-2.9c0.4-1.1,0.7-2.2,1.1-3.4c0.4-1.2,0.9-2.3,1.3-3.5
		c0.5-1.2,1-2.2,1.4-3.2c0.5-1,1-1.8,1.5-2.6c0.5-0.7,1-1.2,1.5-1.5c0.1-0.1,0.2-0.1,0.3-0.2c0.1,0,0.2,0,0.2-0.1c0.1,0,0.1,0,0.2,0
		c0.1,0,0.3,0,0.4,0s0.2,0,0.4,0c0.6,0,1,0.1,1.1,0.2c0.6,0.2,1.2,0.5,1.7,0.8C195.3,190.8,195.5,191.3,195.5,191.7z"/>
	<path fill="#F6F6F6" d="M228.5,172.4c0.9,0,1.7,0.2,2.4,0.7c0.7,0.4,1.3,1,1.8,1.6c0.5,0.6,0.9,1.4,1.2,2.1
		c0.3,0.8,0.5,1.5,0.6,2.1c0.1,0.6,0.1,1.2,0,1.6c-0.1,0.4-0.3,0.7-0.7,0.7c-0.2,0-0.5-0.1-0.9-0.4c-0.4-0.3-0.8-0.5-1.3-0.9
		c-0.5-0.3-1.1-0.6-1.7-0.9c-0.6-0.3-1.4-0.4-2.2-0.4c-1.2,0-2.5,0.3-3.8,0.9c-1.4,0.6-2.7,1.3-4,2.1c-1.3,0.8-2.5,1.8-3.6,2.7
		c-1.1,1-2,1.9-2.7,2.7c-0.7,0.8-1.1,1.6-1.2,2.1c-0.1,0.6,0.1,0.9,0.8,0.9c0.4,0,1-0.1,1.8-0.4c0.8-0.3,1.6-0.6,2.7-0.9
		c1-0.3,2.2-0.7,3.5-0.9c1.3-0.3,2.8-0.4,4.4-0.4c2.1,0,3.8,0.2,5.1,0.7c1.3,0.5,2.2,1,2.9,1.8c0.7,0.7,1.1,1.5,1.3,2.4
		c0.2,0.9,0.3,1.7,0.3,2.4c0,1.8-0.3,3.6-1,5.2c-0.7,1.6-1.5,3.2-2.6,4.6c-1.1,1.4-2.3,2.7-3.8,3.8c-1.4,1.1-2.9,2.1-4.4,2.9
		c-1.5,0.8-3,1.4-4.6,1.8c-1.5,0.4-2.9,0.6-4.2,0.6c-0.6,0-1.4-0.1-2.2-0.4c-0.8-0.3-1.6-0.7-2.2-1.3c-0.7-0.6-1.3-1.3-1.7-2.2
		c-0.5-0.9-0.7-1.9-0.7-3.1c0-0.6,0.1-1.1,0.4-1.4c0.3-0.3,0.6-0.4,0.9-0.4c0.3,0,0.6,0.2,0.9,0.5c0.3,0.3,0.4,0.7,0.4,1.2
		c0,0.4,0.1,0.8,0.4,1.1c0.3,0.3,0.6,0.5,0.9,0.7c0.4,0.2,0.8,0.3,1.2,0.4c0.4,0.1,0.8,0.1,1,0.1c0.8,0,1.7-0.2,2.7-0.6
		c1-0.4,2.1-0.9,3.2-1.5c1.1-0.6,2.1-1.4,3.2-2.3c1-0.9,2-1.8,2.8-2.9c0.8-1,1.5-2.1,2-3.2c0.5-1.1,0.8-2.2,0.8-3.3
		c0-0.7,0-1.4-0.1-2.1c-0.1-0.6-0.2-1.2-0.5-1.7c-0.2-0.5-0.6-0.9-1-1.1c-0.4-0.3-1-0.4-1.7-0.4c-1.6,0-3.1,0.2-4.5,0.6
		c-1.4,0.4-2.6,0.8-3.7,1.2c-1.1,0.4-2,0.8-2.7,1.2c-0.7,0.4-1.2,0.5-1.5,0.5c-0.5,0-1-0.1-1.6-0.4c-0.5-0.2-1-0.5-1.4-0.9
		c-0.4-0.4-0.7-0.8-1-1.2c-0.3-0.4-0.4-0.9-0.4-1.3c0-1.1,0.3-2.2,0.9-3.4c0.6-1.2,1.4-2.5,2.5-3.7c1-1.3,2.2-2.5,3.6-3.6
		c1.3-1.1,2.7-2.2,4.2-3.1c1.5-0.9,2.9-1.6,4.4-2.2C225.8,172.7,227.2,172.4,228.5,172.4z"/>
	<path fill="#F6F6F6" d="M243.7,187.3c0,0.6-0.2,1-0.6,1.2c-0.4,0.2-0.9,0.3-1.4,0.3c-0.6,0-1.2-0.2-1.9-0.4
		c-0.7-0.2-1.3-0.5-1.9-0.9c-0.6-0.3-1-0.7-1.4-1.1c-0.4-0.4-0.6-0.7-0.6-1.1c0-0.5,0.1-0.9,0.3-1.1c0.2-0.3,0.5-0.5,0.8-0.6
		c0.3-0.1,0.7-0.2,1.2-0.2c0.4,0,0.9,0,1.4,0c0.5,0,1,0.1,1.4,0.4c0.5,0.3,0.9,0.6,1.3,1c0.4,0.4,0.7,0.8,0.9,1.3
		C243.6,186.5,243.7,186.9,243.7,187.3z M248.2,199.6c0.1-0.2,0.2-0.4,0.3-0.5c0.1-0.1,0.2-0.1,0.3-0.1c0.1,0,0.2,0.1,0.2,0.2
		s0.1,0.3,0,0.4c-0.1,0.3-0.2,0.8-0.5,1.5c-0.2,0.7-0.5,1.4-0.8,2.3c-0.3,0.8-0.7,1.7-1.1,2.6c-0.4,0.9-0.8,1.7-1.3,2.4
		c-0.4,0.7-0.9,1.3-1.4,1.8c-0.5,0.5-0.9,0.7-1.4,0.7h-0.1c-1.3,0-2.3-0.4-3.1-1.2c-0.8-0.8-1.3-1.8-1.7-2.9
		c-0.4-1.2-0.7-2.4-0.8-3.6c-0.1-1.3-0.2-2.3-0.2-3.3c0-1.1,0-2.1,0.1-2.9c0-0.8,0.1-1.5,0.2-2.1c0.1-0.6,0.1-1,0.2-1.4
		c0-0.4,0.1-0.7,0.1-0.9c0-0.4,0.3-0.7,0.8-0.7c0.5-0.1,1.1,0,1.7,0.2c0.6,0.2,1.2,0.5,1.7,0.9c0.5,0.4,0.8,0.9,0.8,1.4
		c0,0.4,0,0.8,0,1.2c0,0.4-0.1,0.9-0.1,1.4c0,0.5-0.1,1-0.1,1.5c0,0.5,0,0.9,0,1.4c0,2.1,0.2,3.9,0.5,5.2c0.3,1.3,0.7,2.4,1,3.2
		c0.3-0.1,0.6-0.4,0.9-0.9c0.3-0.4,0.7-1,1-1.5c0.3-0.6,0.7-1.2,1-1.9c0.3-0.7,0.6-1.3,0.9-1.9c0.3-0.6,0.5-1.1,0.7-1.6
		C248,200.1,248.2,199.8,248.2,199.6z"/>
	<path fill="#F6F6F6" d="M263.9,215.2c1.2,0.6,2.2,1.3,2.8,2.3c0.7,1,1.1,2,1.4,3c0.3,1,0.4,2,0.4,2.9c0,0.9-0.2,1.6-0.4,2.1
		c-0.4,0.9-1.2,1.9-2.4,2.9c-1.2,1-2.6,2.1-4.2,3c-1.6,1-3.4,1.9-5.3,2.8c-1.9,0.8-3.9,1.5-5.8,2s-3.8,0.7-5.7,0.7
		c-1.8,0-3.4-0.3-4.8-1c-0.4-0.2-1-0.6-1.7-1.2c-0.7-0.6-1.3-1.2-2-2c-0.6-0.8-1.1-1.5-1.5-2.4c-0.4-0.8-0.4-1.6-0.2-2.3
		c0.3-0.7,0.8-1.4,1.5-1.9c0.8-0.6,1.6-1,2.6-1.4c1-0.4,2-0.6,3.1-0.9c1.1-0.2,2-0.4,2.9-0.4c0.9-0.1,1.6-0.1,2.1,0
		c0.5,0.1,0.8,0.2,0.7,0.4c-0.1,0.2-0.3,0.3-0.8,0.4c-0.5,0.1-1,0.3-1.7,0.4c-0.7,0.1-1.4,0.3-2.2,0.5c-0.8,0.2-1.6,0.5-2.3,0.8
		c-0.7,0.3-1.4,0.7-2,1.2c-0.6,0.5-1.1,1-1.4,1.7c-0.3,0.7-0.2,1.3,0.3,1.7c0.6,0.4,1.4,0.8,2.5,1c1.1,0.2,2.5,0.3,4.1,0.2
		c1.6-0.1,3.3-0.2,5-0.5c1.8-0.3,3.6-0.7,5.4-1.2c1.8-0.5,3.5-1.1,5-1.8c1.6-0.7,2.9-1.5,4.1-2.4c1.2-0.9,2-1.9,2.5-2.9
		c0.3-0.7,0.3-1.4,0-2.2c-0.3-0.8-1-1.4-2.1-1.9c-1.5-0.7-3-1.1-4.7-1.2c-1.7-0.1-3.2-0.1-4.7,0.1c-0.1,0.2-0.3,0.3-0.4,0.3
		c-0.2,0-0.3-0.1-0.4-0.2c-0.9,0.1-1.7,0.3-2.5,0.5c-0.8,0.2-1.5,0.3-2.1,0.5c-0.6,0.1-1.1,0.2-1.5,0.3c-0.4,0.1-0.6,0.1-0.8,0
		c-0.2-0.1-0.3-0.2-0.5-0.5c-0.2-0.3-0.3-0.6-0.5-1c-0.1-0.4-0.2-0.8-0.2-1.2s0.1-0.9,0.3-1.3c0.3-0.7,1.2-1.2,2.5-1.5
		c1.3-0.3,2.8-0.4,4.5-0.4v-0.2c0-0.3,0-0.5,0-0.8c0-0.3,0-0.6,0-1h0c-0.7,0-1.4-0.2-2.2-0.5c-0.8-0.4-1.5-0.9-2.2-1.7
		c-0.7-0.8-1.2-1.8-1.6-3.1c-0.4-1.2-0.7-2.7-0.7-4.5c0-0.9,0.1-1.9,0.4-3c0.3-1,0.7-2.1,1.1-3.1c0.4-1,1-2,1.5-3
		c0.6-1,1.1-1.8,1.7-2.5c0.6-0.7,1.1-1.3,1.6-1.7c0.5-0.4,0.9-0.6,1.3-0.6c0.8,0,1.5,0.2,2,0.5c0.5,0.3,0.9,0.7,1.2,1.1
		c0.3,0.4,0.5,0.8,0.5,1.2c0.1,0.4,0.1,0.7,0.1,0.9c0,0.2-0.2,0.4-0.6,0.7s-0.8,0.7-1.4,1.2c-0.6,0.5-1.2,1.1-1.8,1.9
		c-0.7,0.7-1.3,1.6-1.8,2.6c-0.6,1-1,2.1-1.4,3.4c-0.4,1.3-0.6,2.7-0.6,4.3c0,1.6,0.3,2.8,0.8,3.4c0.6,0.6,1.2,0.8,2,0.6
		c0-0.6,0.1-1.2,0.1-1.7c0.1-0.6,0.1-1.1,0.2-1.5c0.1-0.4,0.1-0.8,0.2-1c0.1-0.3,0.2-0.4,0.2-0.4c0.4,0,0.8,0.3,1.1,0.8
		c0.3,0.5,0.5,1.1,0.7,1.9c0.9-1.1,1.6-2.6,2.3-4.4c0.6-1.8,1-3.9,1-6.3c0-0.2,0.1-0.4,0.4-0.4c0.3,0,0.6,0,0.9,0.2
		c0.3,0.2,0.6,0.5,0.9,0.9c0.3,0.4,0.4,1,0.4,1.8c0,0.6-0.1,1.4-0.4,2.4c-0.3,1-0.6,2-1.1,3.1s-1.1,2.1-1.7,3.1
		c-0.7,1-1.5,1.8-2.3,2.5c0,0.4,0,1-0.1,1.5c-0.1,0.6-0.1,1.2-0.2,1.8c0.8,0.1,1.6,0.2,2.4,0.3c0.8,0.1,1.5,0.2,2.3,0.4
		s1.4,0.3,1.9,0.5C263,214.9,263.5,215.1,263.9,215.2z"/>
	<path fill="#F6F6F6" d="M281.4,215.2c1.2,0.6,2.2,1.3,2.8,2.3c0.7,1,1.1,2,1.4,3c0.3,1,0.4,2,0.4,2.9c0,0.9-0.2,1.6-0.4,2.1
		c-0.4,0.9-1.2,1.9-2.4,2.9c-1.2,1-2.6,2.1-4.2,3c-1.6,1-3.4,1.9-5.3,2.8c-1.9,0.8-3.9,1.5-5.8,2c-2,0.5-3.8,0.7-5.7,0.7
		c-1.8,0-3.4-0.3-4.8-1c-0.4-0.2-1-0.6-1.7-1.2c-0.7-0.6-1.3-1.2-2-2c-0.6-0.8-1.1-1.5-1.5-2.4c-0.4-0.8-0.4-1.6-0.2-2.3
		c0.3-0.7,0.8-1.4,1.5-1.9c0.8-0.6,1.6-1,2.6-1.4c1-0.4,2-0.6,3.1-0.9c1.1-0.2,2-0.4,2.9-0.4c0.9-0.1,1.6-0.1,2.1,0
		c0.5,0.1,0.8,0.2,0.7,0.4c-0.1,0.2-0.3,0.3-0.8,0.4c-0.5,0.1-1,0.3-1.7,0.4c-0.7,0.1-1.4,0.3-2.2,0.5c-0.8,0.2-1.6,0.5-2.3,0.8
		c-0.7,0.3-1.4,0.7-2,1.2c-0.6,0.5-1.1,1-1.4,1.7c-0.3,0.7-0.2,1.3,0.3,1.7c0.6,0.4,1.4,0.8,2.5,1c1.1,0.2,2.5,0.3,4.1,0.2
		c1.6-0.1,3.3-0.2,5-0.5c1.8-0.3,3.6-0.7,5.4-1.2c1.8-0.5,3.5-1.1,5-1.8c1.6-0.7,2.9-1.5,4.1-2.4c1.2-0.9,2-1.9,2.5-2.9
		c0.3-0.7,0.3-1.4,0-2.2s-1-1.4-2.1-1.9c-1.5-0.7-3-1.1-4.7-1.2s-3.2-0.1-4.7,0.1c-0.1,0.2-0.3,0.3-0.4,0.3c-0.2,0-0.3-0.1-0.4-0.2
		c-0.9,0.1-1.7,0.3-2.5,0.5c-0.8,0.2-1.5,0.3-2.1,0.5c-0.6,0.1-1.1,0.2-1.5,0.3c-0.4,0.1-0.6,0.1-0.8,0c-0.2-0.1-0.3-0.2-0.5-0.5
		c-0.2-0.3-0.3-0.6-0.5-1c-0.1-0.4-0.2-0.8-0.2-1.2c0-0.4,0.1-0.9,0.3-1.3c0.3-0.7,1.2-1.2,2.5-1.5c1.3-0.3,2.8-0.4,4.5-0.4v-0.2
		c0-0.3,0-0.5,0-0.8c0-0.3,0-0.6,0-1h0c-0.7,0-1.4-0.2-2.2-0.5c-0.8-0.4-1.5-0.9-2.2-1.7s-1.2-1.8-1.6-3.1c-0.4-1.2-0.7-2.7-0.7-4.5
		c0-0.9,0.1-1.9,0.4-3c0.3-1,0.7-2.1,1.1-3.1c0.4-1,1-2,1.5-3c0.6-1,1.1-1.8,1.7-2.5c0.6-0.7,1.1-1.3,1.6-1.7
		c0.5-0.4,0.9-0.6,1.3-0.6c0.8,0,1.5,0.2,2,0.5c0.5,0.3,0.9,0.7,1.2,1.1c0.3,0.4,0.5,0.8,0.5,1.2c0.1,0.4,0.1,0.7,0.1,0.9
		c0,0.2-0.2,0.4-0.6,0.7s-0.8,0.7-1.4,1.2c-0.6,0.5-1.2,1.1-1.8,1.9c-0.7,0.7-1.3,1.6-1.8,2.6c-0.6,1-1,2.1-1.4,3.4
		c-0.4,1.3-0.6,2.7-0.6,4.3c0,1.6,0.3,2.8,0.8,3.4c0.6,0.6,1.2,0.8,2,0.6c0-0.6,0.1-1.2,0.1-1.7c0.1-0.6,0.1-1.1,0.2-1.5
		s0.1-0.8,0.2-1c0.1-0.3,0.2-0.4,0.2-0.4c0.4,0,0.8,0.3,1.1,0.8c0.3,0.5,0.5,1.1,0.7,1.9c0.9-1.1,1.6-2.6,2.3-4.4
		c0.6-1.8,1-3.9,1-6.3c0-0.2,0.1-0.4,0.4-0.4c0.3,0,0.6,0,0.9,0.2c0.3,0.2,0.6,0.5,0.9,0.9c0.3,0.4,0.4,1,0.4,1.8
		c0,0.6-0.1,1.4-0.4,2.4c-0.3,1-0.6,2-1.1,3.1c-0.5,1.1-1.1,2.1-1.7,3.1c-0.7,1-1.5,1.8-2.3,2.5c0,0.4,0,1-0.1,1.5
		c-0.1,0.6-0.1,1.2-0.2,1.8c0.8,0.1,1.6,0.2,2.4,0.3c0.8,0.1,1.5,0.2,2.3,0.4c0.7,0.2,1.4,0.3,1.9,0.5
		C280.5,214.9,281,215.1,281.4,215.2z"/>
</g>
</svg>
