<?xml version="1.0" encoding="utf-8"?>
<!-- Generator: Adobe Illustrator 18.1.1, SVG Export Plug-In . SVG Version: 6.00 Build 0)  -->
<svg version="1.1" id="space" xmlns="http://www.w3.org/2000/svg" xmlns:xlink="http://www.w3.org/1999/xlink" x="0px" y="0px"
	 viewBox="0 0 170 140" enable-background="new 0 0 170 140" xml:space="preserve">
<g>
	<path fill="#FFFFFF" d="M34.3,5.1c1.4,0,2.6,0.3,3.7,1c1.1,0.7,2,1.5,2.8,2.5c0.8,1,1.4,2.1,1.9,3.3c0.5,1.2,0.8,2.3,0.9,3.3
		c0.1,1,0.1,1.8-0.1,2.5c-0.2,0.7-0.5,1-1,1c-0.4,0-0.8-0.2-1.4-0.6c-0.6-0.4-1.3-0.8-2-1.3c-0.8-0.5-1.7-0.9-2.7-1.3
		c-1-0.4-2.1-0.6-3.3-0.6c-1.8,0-3.8,0.4-5.9,1.3C25,17,23,18,21,19.3c-2,1.3-3.8,2.7-5.5,4.2c-1.7,1.5-3.1,2.9-4.1,4.2
		c-1,1.3-1.6,2.4-1.8,3.3c-0.2,0.9,0.2,1.3,1.3,1.3c0.7,0,1.6-0.2,2.8-0.6c1.2-0.4,2.5-0.9,4.1-1.4c1.6-0.5,3.4-1,5.5-1.4
		c2-0.4,4.3-0.6,6.8-0.6c3.3,0,5.9,0.4,7.9,1.1c2,0.7,3.5,1.6,4.5,2.7c1.1,1.1,1.7,2.3,2.1,3.6c0.3,1.3,0.5,2.6,0.5,3.8
		c0,2.8-0.5,5.5-1.5,8c-1,2.5-2.4,4.9-4.1,7c-1.7,2.2-3.6,4.1-5.8,5.8c-2.2,1.7-4.4,3.2-6.8,4.4c-2.3,1.2-4.7,2.1-7,2.8
		c-2.3,0.6-4.5,1-6.5,1c-1,0-2.1-0.2-3.3-0.7c-1.2-0.4-2.4-1.1-3.4-2c-1.1-0.9-2-2.1-2.7-3.4c-0.7-1.4-1.1-3-1.1-4.8
		c0-1,0.2-1.7,0.6-2.1c0.4-0.4,0.9-0.6,1.3-0.6c0.5,0,0.9,0.3,1.3,0.7c0.4,0.4,0.6,1.1,0.6,1.8c0,0.7,0.2,1.3,0.6,1.7
		c0.4,0.5,0.9,0.8,1.4,1.1c0.6,0.3,1.2,0.4,1.8,0.5c0.6,0.1,1.2,0.2,1.6,0.2c1.2,0,2.6-0.3,4.2-0.9c1.6-0.6,3.2-1.4,4.9-2.3
		c1.7-1,3.3-2.2,4.9-3.5c1.6-1.4,3-2.8,4.3-4.4c1.3-1.6,2.3-3.2,3.1-4.9c0.8-1.7,1.2-3.4,1.2-5.1c0-1.1-0.1-2.2-0.2-3.2
		c-0.1-1-0.4-1.9-0.7-2.6c-0.4-0.8-0.9-1.3-1.5-1.8c-0.7-0.4-1.5-0.6-2.6-0.6c-2.4,0-4.7,0.3-6.9,0.9c-2.2,0.6-4.1,1.2-5.7,1.9
		c-1.7,0.7-3.1,1.3-4.2,1.8c-1.1,0.5-1.9,0.8-2.3,0.8c-0.8,0-1.6-0.2-2.4-0.5C7.3,36,6.6,35.5,6,34.9c-0.6-0.6-1.1-1.2-1.5-1.9
		c-0.4-0.7-0.6-1.4-0.6-2c0-1.6,0.5-3.4,1.4-5.3c1-1.9,2.2-3.8,3.8-5.8c1.6-1.9,3.4-3.8,5.5-5.6c2.1-1.8,4.2-3.3,6.5-4.7
		c2.2-1.4,4.5-2.5,6.7-3.3C30.1,5.5,32.3,5.1,34.3,5.1z"/>
	<path fill="#FFFFFF" d="M69,32.6c1.3,0.9,2.4,2.2,3.2,4.2c0.8,1.9,1.4,4.1,1.7,6.5c0.3,2.4,0.3,4.9,0.1,7.4c-0.3,2.5-0.8,4.9-1.7,7
		c-0.9,2.1-2.1,3.8-3.6,5.2c-1.5,1.4-3.4,2-5.6,2c-0.9,0-1.7-0.1-2.5-0.4c-0.8-0.2-1.4-0.5-1.8-0.8C58.1,63.5,58,63.3,58,63
		c0.1-0.2,0.5-0.4,1.4-0.4c1.3,0,2.3-0.7,3.1-2c0.8-1.4,1.4-3.1,1.9-5.1c0.4-2,0.7-4.2,0.8-6.6c0.1-2.4,0.1-4.6,0.1-6.6
		c-0.1-2-0.3-3.7-0.5-5.1c-0.3-1.4-0.6-2-0.9-2c-0.7,0-1.3,0.4-1.9,1.2c-0.6,0.8-1.2,1.8-1.8,3.1c-0.6,1.3-1.2,2.7-1.7,4.3
		c-0.5,1.6-1,3.2-1.5,4.8c-0.4,1.6-0.9,3.1-1.2,4.6c-0.4,1.4-0.7,2.7-0.9,3.6c-0.1,3-0.2,6.2-0.2,9.5c0,3.9,0.2,7.2,0.7,9.6
		c0.4,2.5,0.9,4.4,1.3,5.8c0.4,1.4,0.6,2.4,0.7,2.9c0.1,0.5-0.3,0.8-1,0.8c-1.5,0-2.9-0.8-4-2.3c-1.1-1.5-2-3.6-2.7-6.1
		c-0.7-2.5-1.3-5.4-1.6-8.7c-0.4-3.3-0.6-6.6-0.7-10c-0.1-3.4-0.1-6.7,0.1-10c0.1-3.3,0.4-6.2,0.7-8.7c0.3-2.5,0.8-4.6,1.2-6.1
		c0.5-1.5,1-2.3,1.6-2.3c0.6,0,1.2,0,1.8,0c0.7,0,1.2,0.1,1.8,0.3c0.5,0.2,1,0.4,1.3,0.8c0.3,0.3,0.5,0.8,0.5,1.4
		c0,0.7-0.1,2.2-0.3,4.5c-0.2,2.3-0.4,5.2-0.6,8.6c0.4-1.5,0.8-2.9,1.2-4.4c0.4-1.5,0.8-2.8,1.3-4.1c0.4-1.2,0.9-2.3,1.3-3.3
		c0.4-0.9,0.8-1.6,1.2-2c0.5-0.5,1.2-0.8,2.1-1c0.9-0.2,1.8-0.2,2.8-0.2c0.9,0.1,1.8,0.2,2.5,0.4C68.3,32.4,68.8,32.5,69,32.6z"/>
	<path fill="#FFFFFF" d="M112,42.9c0.1-0.3,0.2-0.6,0.4-0.7c0.2-0.1,0.4-0.2,0.6-0.2c0.2,0,0.3,0.1,0.4,0.3c0.1,0.2,0.1,0.5,0,0.9
		c0,0.2-0.2,1-0.6,2.2c-0.3,1.2-0.8,2.6-1.4,4.3c-0.6,1.7-1.2,3.5-2,5.5c-0.7,2-1.5,3.8-2.3,5.5c-0.8,1.7-1.7,3.2-2.6,4.5
		c-0.9,1.3-1.8,2-2.6,2.3c-0.2,0.1-0.5,0.2-1,0.2c-1,0-1.8-0.3-2.5-0.9c-0.7-0.6-1.3-1.3-1.9-2.2c-0.5-0.9-1-1.8-1.4-2.9
		c-0.4-1-0.7-2-0.9-2.9c-0.2-0.9-0.4-1.6-0.5-2.2c-0.1-0.6-0.2-0.9-0.3-0.9c-0.1,0-0.2,0.2-0.4,0.7c-0.2,0.5-0.4,1-0.7,1.7
		c-0.3,0.7-0.7,1.4-1.1,2.2c-0.4,0.8-0.9,1.6-1.4,2.2c-0.5,0.7-1.1,1.2-1.8,1.7c-0.7,0.5-1.4,0.7-2.2,0.7c-1.2,0-2.4-0.2-3.4-0.6
		c-1.1-0.4-2-1.1-2.8-2c-0.8-0.9-1.4-2.1-1.9-3.6c-0.4-1.5-0.7-3.3-0.7-5.4c0-2,0.3-4.2,0.8-6.6c0.5-2.4,1.4-4.7,2.5-6.9
		c1.1-2.1,2.5-3.9,4.2-5.4c1.7-1.4,3.6-2.2,5.9-2.2c1.6,0,3,0.1,4.3,0.2c1.3,0.1,2.4,0.4,3.4,1c1,0.5,1.7,1.4,2.2,2.6
		c0.5,1.2,0.8,2.9,0.8,5.2c0,0.2-0.1,0.4-0.3,0.6c-0.2,0.2-0.5,0.3-0.8,0.4c-0.3,0.1-0.5,0-0.8-0.1c-0.2-0.1-0.3-0.3-0.3-0.6
		c0-0.4,0-0.9-0.1-1.6c-0.1-0.7-0.2-1.4-0.4-2.1c-0.2-0.7-0.5-1.3-0.8-1.9C97.4,35.3,97,35,96.4,35c-1.5,0-2.9,0.6-4.3,1.9
		c-1.4,1.2-2.6,2.9-3.6,5c-1,2.1-1.9,4.4-2.5,7.1c-0.6,2.6-0.9,5.4-0.9,8.2c0,0.6,0,1.2,0.1,1.9c0,0.7,0.1,1.3,0.3,1.9
		c0.1,0.6,0.4,1.1,0.6,1.5c0.3,0.4,0.7,0.6,1.1,0.6c0.3,0,0.6-0.3,1-0.9c0.4-0.6,0.8-1.5,1.3-2.5c0.4-1,0.8-2.1,1.3-3.4
		c0.4-1.2,0.8-2.4,1.1-3.6c0.3-1.2,0.6-2.3,0.8-3.3c0.2-1,0.3-1.8,0.3-2.3c0-0.3,0-0.6,0.1-1c0-0.4,0.2-0.8,0.4-1.1
		c0.2-0.3,0.6-0.6,1.1-0.9c0.5-0.2,1.2-0.4,2.1-0.4c1.9,0,3.2,0.3,4,1c0.8,0.7,1.2,1.3,1.2,2v1c0,1.1,0.1,2.5,0.1,4.2
		s0.1,3.5,0.2,5.2c0.1,1.7,0.3,3.2,0.5,4.5c0.2,1.3,0.6,1.9,1.1,1.9c0.2,0,0.5-0.5,1-1.4c0.5-1,1-2.2,1.6-3.6c0.6-1.4,1.2-3,1.9-4.8
		c0.7-1.7,1.3-3.4,1.8-4.9c0.5-1.5,1-2.8,1.4-3.9C111.7,43.8,112,43.1,112,42.9z"/>
	<path fill="#FFFFFF" d="M118.1,64.9c-1.5,0-2.9-0.5-4.1-1.4c-1.2-0.9-2.3-2.2-3.1-3.7c-0.9-1.5-1.5-3.3-2-5.3c-0.5-2-0.7-4-0.7-6.1
		c0-1.7,0.2-3.3,0.5-4.8c0.4-1.5,0.8-2.9,1.4-4.2c0.5-1.3,1.1-2.4,1.7-3.3c0.6-0.9,1.1-1.6,1.6-2.1c0.4-0.5,1.1-0.9,1.9-1.2
		c0.8-0.3,1.6-0.5,2.4-0.5c0.8-0.1,1.6-0.1,2.3,0.1c0.7,0.1,1.3,0.3,1.6,0.7c0.3,0.3,0.7,0.9,1.1,1.8c0.4,0.9,0.8,1.8,1.1,2.8
		c0.3,1,0.5,1.8,0.5,2.5c0,0.7-0.2,1.1-0.7,1.1c-0.5,0-0.9-0.3-1.2-0.8c-0.3-0.5-0.6-1.2-0.9-1.8c-0.3-0.7-0.5-1.3-0.8-1.9
		c-0.2-0.6-0.5-0.9-0.8-0.9c-0.7,0-1.3,0.6-1.8,1.8c-0.5,1.2-1,2.7-1.3,4.5c-0.3,1.8-0.5,3.8-0.6,5.9c-0.1,2.1-0.1,4.1,0.2,5.9
		c0.2,1.8,0.6,3.3,1.1,4.5c0.5,1.2,1.3,1.8,2.2,1.8c1.1,0,2.1-0.3,3-0.9c0.9-0.6,1.6-1.3,2.3-2.1c0.7-0.9,1.3-1.8,1.7-2.8
		s0.9-2,1.2-3c0.3-0.9,0.6-1.7,0.8-2.4c0.2-0.7,0.4-1.1,0.5-1.3c0.2-0.3,0.4-0.5,0.7-0.7c0.3-0.2,0.5-0.3,0.8-0.3
		c0.2,0,0.4,0.1,0.5,0.2c0.1,0.2,0.1,0.4-0.1,0.7c-0.1,0.2-0.3,0.8-0.6,1.7c-0.3,0.9-0.6,2-1.1,3.3c-0.5,1.3-1,2.6-1.7,4.1
		c-0.7,1.4-1.5,2.7-2.4,3.9c-0.9,1.2-2,2.2-3.1,3C120.9,64.5,119.5,64.9,118.1,64.9z"/>
	<path fill="#FFFFFF" d="M154.9,46.5c0.1-0.3,0.3-0.5,0.4-0.6c0.2-0.1,0.3-0.1,0.5-0.1c0.2,0.1,0.3,0.2,0.4,0.4
		c0.1,0.2,0.1,0.5-0.1,0.8c-0.1,0.2-0.2,0.7-0.5,1.6c-0.2,0.9-0.6,1.9-1.1,3.1c-0.5,1.2-1.1,2.5-1.8,3.8c-0.7,1.3-1.6,2.6-2.5,3.7
		c-1,1.1-2.1,2.1-3.4,2.8c-1.3,0.7-2.7,1.1-4.3,1.1c-2.1,0-4-0.4-5.7-1.3c-1.7-0.9-3.1-2-4.3-3.3c-1.2-1.3-2-2.8-2.7-4.4
		c-0.6-1.6-0.9-3.2-0.9-4.7c0-2,0.2-3.9,0.7-5.8c0.4-1.9,1-3.5,1.6-5.1c0.7-1.5,1.4-2.9,2.1-4c0.8-1.1,1.4-2,2-2.6
		c0.6-0.5,1.4-0.9,2.4-1.2c1-0.3,2-0.4,3-0.4c1,0,1.9,0,2.8,0.2c0.9,0.1,1.6,0.3,2.1,0.5c0.9,0.4,1.7,1.3,2.3,2.6
		c0.6,1.3,0.9,2.8,0.9,4.5c0,3.2-0.7,5.6-2,7.3c-1.3,1.6-3,2.5-5,2.5c-0.7,0-1.5-0.1-2.3-0.2c-0.8-0.2-1.5-0.3-2.2-0.5
		c-0.1,1.5,0,3,0.4,4.5c0.4,1.5,0.9,2.8,1.5,3.9c0.6,1.1,1.4,2.1,2.2,2.8c0.8,0.7,1.7,1.1,2.5,1.1c1.3,0,2.5-0.3,3.5-0.9
		c1-0.6,1.9-1.3,2.7-2.2c0.8-0.9,1.5-1.9,2-2.9c0.5-1.1,1-2.1,1.4-3c0.4-1,0.7-1.8,0.9-2.5C154.7,47.1,154.8,46.7,154.9,46.5z
		 M143.5,35.7c-0.8,0-1.5,0.3-2.2,0.9c-0.7,0.6-1.2,1.3-1.7,2.3c-0.5,0.9-0.9,2-1.2,3.2c-0.3,1.2-0.6,2.5-0.7,3.8
		c1.3,0.6,2.4,0.7,3.4,0.4c0.9-0.3,1.7-0.8,2.3-1.6c0.6-0.8,1.1-1.6,1.3-2.7c0.3-1,0.4-2,0.4-3c0-0.9-0.1-1.7-0.4-2.4
		C144.4,36,144,35.7,143.5,35.7z"/>
	<path fill="#FFFFFF" d="M18.2,109.2c0.5,0.3,0.9,0.8,1.2,1.5c0.3,0.7,0.5,1.5,0.6,2.3c0.1,0.9,0.1,1.8,0.1,2.7
		c-0.1,0.9-0.3,1.8-0.6,2.5c-0.3,0.8-0.7,1.4-1.3,1.9c-0.5,0.5-1.2,0.7-2,0.7c-0.3,0-0.6,0-0.9-0.1c-0.3-0.1-0.4-0.2-0.6-0.3
		c-0.1-0.1-0.2-0.2-0.1-0.3s0.2-0.1,0.5-0.1c0.5,0,0.8-0.2,1.1-0.7s0.5-1.1,0.7-1.8c0.2-0.7,0.3-1.5,0.3-2.4c0.1-0.9,0.1-1.7,0-2.4
		s-0.1-1.3-0.2-1.8c-0.1-0.5-0.2-0.7-0.3-0.7c-0.2,0-0.5,0.2-0.7,0.5s-0.5,0.8-0.7,1.3c-0.2,0.5-0.4,1.1-0.6,1.7
		c-0.2,0.6-0.4,1.3-0.5,1.9c-0.2,0.6-0.3,1.2-0.4,1.7c-0.1,0.5-0.2,0.9-0.3,1.2c0.1,0.4,0.3,0.7,0.4,0.9c0.1,0.2,0.3,0.4,0.3,0.6
		c0.1,0.2,0.1,0.3,0.1,0.3s-0.1,0.1-0.3,0.1c-0.8,0-1.5-0.2-2-0.7s-0.9-1.1-1.2-1.9s-0.5-1.7-0.6-2.7c-0.1-1-0.2-2-0.2-3.1
		c0-0.5,0-1,0.1-1.6c0-0.6,0.1-1.2,0.1-1.8c0.1-0.6,0.1-1.2,0.2-1.7c0.1-0.6,0.1-1.1,0.2-1.5s0.1-0.8,0.1-1.1c0-0.3,0.1-0.4,0.1-0.5
		c0-0.1,0-0.2,0.1-0.3c0-0.1,0.2-0.2,0.4-0.2c0.1,0,0.3,0,0.5,0.1c0.3,0.1,0.5,0.2,0.8,0.3c0.3,0.1,0.5,0.3,0.7,0.5s0.3,0.4,0.3,0.5
		c0,0.2,0,0.6-0.1,1.1c-0.1,0.6-0.2,1.3-0.3,2.1c-0.1,0.8-0.2,1.8-0.3,2.9c-0.1,1.1-0.1,2.2-0.1,3.4c0,0.6,0,1.2,0.1,1.7
		c0.1,0.5,0.2,1,0.3,1.4c0.1-0.6,0.2-1.3,0.4-2.1c0.2-0.8,0.4-1.6,0.6-2.4c0.2-0.8,0.5-1.5,0.7-2.2c0.2-0.6,0.5-1.1,0.7-1.3
		c0.2-0.2,0.4-0.3,0.7-0.4c0.3-0.1,0.5-0.1,0.8-0.1c0.3,0,0.5,0.1,0.7,0.1C18,109.1,18.2,109.1,18.2,109.2z"/>
	<path fill="#FFFFFF" d="M28.9,110.7c0,0.4,0,1,0.1,1.9c0.1,0.9,0.1,2.1,0.1,3.7c0,1.3-0.2,2.6-0.5,3.8s-0.9,2.3-1.5,3.2
		c-0.6,0.9-1.3,1.6-2.1,2.1c-0.8,0.5-1.6,0.7-2.5,0.6c-0.4,0-0.8-0.1-1.1-0.3c-0.3-0.1-0.6-0.3-0.8-0.5c-0.2-0.2-0.4-0.4-0.5-0.6
		c-0.1-0.2-0.2-0.4-0.1-0.5c0-0.2,0.1-0.2,0.2-0.2c0.1,0,0.3,0.1,0.5,0.2c0.2,0.1,0.4,0.2,0.7,0.3c0.3,0.1,0.5,0.2,0.8,0.2
		s0.7-0.1,1.2-0.4c0.5-0.3,0.9-0.7,1.4-1.3c0.5-0.6,0.8-1.3,1.2-2.2s0.5-1.9,0.5-3.1c0-0.5,0-1.1,0-1.8s0-1.3,0-2
		c-0.1,0.4-0.2,1-0.4,1.6c-0.1,0.6-0.3,1.2-0.5,1.8c-0.2,0.6-0.4,1.1-0.5,1.6c-0.2,0.5-0.4,0.8-0.6,1c0,0.1-0.1,0.1-0.2,0.1
		c0,0,0,0,0,0c0,0,0,0-0.1,0c-0.2,0-0.5,0-0.8-0.1c-0.3-0.1-0.7-0.3-1-0.6c-0.3-0.3-0.6-0.7-0.8-1.3c-0.2-0.5-0.4-1.2-0.4-2
		c0-0.6,0-1.3,0.1-2s0.1-1.4,0.2-2.1c0.1-0.7,0.1-1.3,0.2-1.8c0.1-0.5,0.1-0.9,0.1-1.1c0-0.1,0-0.3-0.1-0.4
		c-0.1-0.1-0.1-0.3-0.1-0.4c0-0.1,0-0.2,0.1-0.3c0.1-0.1,0.2-0.1,0.5-0.1c0.3,0,0.6,0,0.9,0.1c0.3,0.1,0.6,0.2,0.8,0.3
		c0.2,0.1,0.5,0.3,0.6,0.5c0.2,0.2,0.2,0.4,0.2,0.6s0,0.5-0.1,0.9c-0.1,0.4-0.2,0.9-0.3,1.5c-0.1,0.6-0.2,1.2-0.3,1.9
		c-0.1,0.7-0.1,1.5-0.1,2.2c0,0.8,0,1.4,0.1,1.8c0.1,0.4,0.1,0.8,0.2,1.1c0.1-0.2,0.2-0.6,0.3-1c0.1-0.4,0.3-0.9,0.5-1.5
		c0.2-0.5,0.3-1.1,0.5-1.7c0.2-0.6,0.3-1.1,0.5-1.7c0.1-0.5,0.3-1,0.3-1.4s0.1-0.7,0.1-1v-0.2c0-0.1,0-0.3-0.1-0.4
		c-0.1-0.1-0.1-0.3-0.1-0.4s0-0.2,0.1-0.3c0.1-0.1,0.2-0.1,0.5-0.1c0.3,0,0.6,0,0.8,0.1s0.5,0.2,0.7,0.3c0.2,0.1,0.4,0.3,0.5,0.5
		C28.8,110.3,28.9,110.5,28.9,110.7z"/>
	<path fill="#FFFFFF" d="M42.8,98.2c0.7,0,1.3,0.3,1.9,0.8s1,1.3,1.4,2.2s0.7,2,0.9,3.2c0.2,1.2,0.4,2.5,0.4,3.9
		c0.1,1.4,0,2.8-0.1,4.2c-0.1,1.4-0.3,2.8-0.6,4.2c-0.3,1.4-0.7,2.7-1.2,3.9c-0.5,1.2-1.1,2.3-1.8,3.2c-0.7,0.9-1.5,1.6-2.4,2.2
		c-0.9,0.5-1.9,0.8-3.1,0.8c-0.7,0-1.2-0.1-1.7-0.4s-0.9-0.6-1.2-1c-0.3-0.4-0.6-0.8-0.8-1.2c-0.2-0.4-0.3-0.8-0.4-1.2
		c0-0.1,0-0.3,0-0.4c0.1-0.1,0.2-0.2,0.3-0.2c0.1,0,0.2-0.1,0.3,0s0.2,0.1,0.2,0.2c0.1,0.3,0.1,0.5,0.3,0.8c0.1,0.3,0.3,0.5,0.5,0.7
		c0.2,0.2,0.4,0.4,0.7,0.5c0.3,0.1,0.6,0.2,1,0.2c0.8,0,1.5-0.2,2.1-0.7c0.6-0.5,1.2-1.1,1.7-1.9c0.5-0.8,0.9-1.8,1.3-2.8
		c0.4-1.1,0.7-2.2,0.9-3.5s0.4-2.5,0.6-3.8c0.1-1.3,0.2-2.5,0.2-3.8c0-1.2,0-2.4,0-3.5c-0.1-1.1-0.1-2-0.3-2.8s-0.3-1.5-0.5-1.9
		c-0.2-0.5-0.4-0.7-0.6-0.7c-0.7,0-1.4,0.2-2.1,0.5c-0.6,0.3-1.2,0.7-1.7,1.2c-0.5,0.5-1,1.1-1.4,1.7s-0.7,1.3-1,1.9
		c-0.3,0.7-0.5,1.3-0.6,1.9c-0.1,0.6-0.2,1.2-0.2,1.6c0,0.5,0,0.8,0,0.9s-0.1,0.2-0.2,0.2c-0.1,0-0.1,0-0.3-0.1
		c-0.1,0-0.2-0.1-0.4-0.2c-0.1-0.1-0.2-0.2-0.3-0.4c-0.1-0.2-0.1-0.3-0.1-0.6c0.1-1.4,0.4-2.6,1-3.8c0.5-1.2,1.2-2.2,2-3.1
		s1.6-1.6,2.6-2.1C40.9,98.5,41.8,98.2,42.8,98.2z"/>
	<path fill="#FFFFFF" d="M53.8,108.5c0.3,0,0.6,0.1,0.9,0.2c0.3,0.2,0.5,0.4,0.7,0.8c0.2,0.4,0.4,0.8,0.5,1.4
		c0.1,0.6,0.2,1.3,0.2,2.1c0,0.8-0.1,1.7-0.2,2.5c-0.1,0.9-0.4,1.6-0.7,2.3c-0.3,0.7-0.7,1.3-1.2,1.7c-0.5,0.4-1.1,0.6-1.8,0.6
		c-0.6,0-1.2-0.2-1.6-0.5s-0.7-0.7-1-1.3c-0.2-0.5-0.4-1.1-0.5-1.7c-0.1-0.6-0.1-1.2-0.1-1.7c0-0.5,0-1,0.1-1.6
		c0.1-0.6,0.2-1.1,0.3-1.5c0.1-0.5,0.4-0.9,0.6-1.2c0.3-0.3,0.6-0.5,1-0.6c0.1-0.4,0.3-0.7,0.5-0.9c0.2-0.2,0.5-0.4,0.7-0.5
		c0.3-0.1,0.5-0.2,0.8-0.2C53.3,108.5,53.5,108.5,53.8,108.5z M53.2,119.1c0.2,0,0.5-0.2,0.7-0.7c0.2-0.5,0.4-1,0.6-1.7
		c0.2-0.7,0.3-1.4,0.4-2.2c0.1-0.8,0.1-1.5,0.1-2.2s-0.2-1.3-0.4-1.7c-0.2-0.5-0.5-0.7-0.9-0.7c-0.2,0-0.3,0.1-0.4,0.4
		s-0.1,0.5-0.2,0.9c-0.1,0.3-0.1,0.7-0.2,1c-0.1,0.3-0.2,0.6-0.4,0.8c0,0.7,0,1.4-0.1,2.1s-0.1,1.4-0.1,2c0,0.6,0.1,1.1,0.2,1.5
		C52.6,118.9,52.9,119.1,53.2,119.1z"/>
	<path fill="#FFFFFF" d="M67.6,109.3c0,0.2,0,0.4-0.1,0.8c-0.1,0.4-0.1,0.8-0.2,1.2c-0.1,0.5-0.2,0.9-0.3,1.5
		c-0.1,0.5-0.2,1-0.3,1.5c-0.1,0.5-0.2,0.9-0.2,1.4c-0.1,0.4-0.1,0.8-0.1,1.1c0,0.8,0,1.5,0.1,1.9s0.1,0.8,0.2,1
		c0.1,0.2,0.1,0.4,0.2,0.5c0,0.1,0.1,0.2,0.1,0.4s-0.2,0.2-0.5,0.2s-0.7-0.1-1.1-0.4s-0.8-0.6-1.1-1.2c-0.3-0.5-0.5-1.3-0.5-2.2
		c0-0.6,0-1.3,0.1-1.9s0.1-1.3,0.2-1.9c0.1-0.6,0.2-1.2,0.3-1.8c0.1-0.6,0.2-1,0.3-1.5c-0.2,0.4-0.3,0.9-0.5,1.5
		c-0.2,0.6-0.4,1.2-0.6,1.9c-0.2,0.7-0.4,1.4-0.6,2.1c-0.2,0.7-0.4,1.3-0.6,2s-0.4,1.1-0.6,1.6c-0.2,0.5-0.3,0.8-0.5,1
		c0,0.1-0.1,0.2-0.2,0.2h-0.1c-0.1,0-0.2,0-0.3,0c-0.5,0-1-0.2-1.3-0.6c-0.4-0.4-0.6-0.8-0.9-1.4c-0.2-0.6-0.4-1.2-0.5-1.8
		s-0.2-1.3-0.2-1.9s-0.1-1.1,0-1.5c0-0.4,0-0.6,0-0.7c0-0.1,0-0.2,0-0.2s-0.1-0.1-0.1-0.1c0,0-0.1-0.1-0.1-0.1s0-0.1,0-0.2
		c0-0.1,0.2-0.2,0.5-0.2c0.3-0.1,0.7-0.1,1.1,0c0.4,0,0.8,0.1,1.1,0.3c0.3,0.2,0.5,0.4,0.5,0.8c0,0.1,0,0.3,0,0.6s0,0.7,0,1
		c0,0.4,0,0.7,0,1.1c0,0.4,0,0.6,0,0.8c0,0.3,0,0.6,0,0.8s0,0.5,0.1,0.7c0.1-0.5,0.3-1,0.5-1.6c0.2-0.6,0.4-1.2,0.6-1.9
		c0.2-0.7,0.5-1.3,0.7-1.9c0.3-0.6,0.5-1.2,0.8-1.8c0.3-0.6,0.5-1,0.8-1.4c0.3-0.4,0.5-0.7,0.8-0.8c0,0,0.1-0.1,0.2-0.1
		c0,0,0.1,0,0.1,0s0.1,0,0.1,0c0.1,0,0.1,0,0.2,0s0.1,0,0.2,0c0.3,0,0.5,0,0.6,0.1c0.4,0.1,0.7,0.3,1,0.5
		C67.4,108.8,67.6,109,67.6,109.3z"/>
	<path fill="#FFFFFF" d="M80.9,112.2c0-0.1,0.1-0.2,0.2-0.3s0.1-0.1,0.2-0.1c0.1,0,0.1,0,0.2,0.1c0,0.1,0,0.2,0,0.3
		c0,0.1-0.1,0.3-0.2,0.8c-0.1,0.4-0.3,1-0.5,1.6c-0.2,0.6-0.4,1.3-0.7,2c-0.3,0.7-0.5,1.4-0.8,2c-0.3,0.6-0.6,1.2-0.9,1.6
		s-0.6,0.7-0.9,0.8c-0.1,0-0.2,0.1-0.4,0.1c-0.4,0-0.7-0.1-0.9-0.3c-0.3-0.2-0.5-0.5-0.7-0.8c-0.2-0.3-0.4-0.7-0.5-1
		c-0.1-0.4-0.2-0.7-0.3-1c-0.1-0.3-0.2-0.6-0.2-0.8c0-0.2-0.1-0.3-0.1-0.3c0,0-0.1,0.1-0.1,0.3s-0.2,0.4-0.3,0.6
		c-0.1,0.2-0.2,0.5-0.4,0.8c-0.1,0.3-0.3,0.6-0.5,0.8c-0.2,0.2-0.4,0.4-0.6,0.6c-0.2,0.2-0.5,0.3-0.8,0.3c-0.4,0-0.9-0.1-1.2-0.2
		c-0.4-0.2-0.7-0.4-1-0.7c-0.3-0.3-0.5-0.8-0.7-1.3c-0.2-0.5-0.2-1.2-0.2-1.9c0-0.7,0.1-1.5,0.3-2.4c0.2-0.9,0.5-1.7,0.9-2.5
		c0.4-0.8,0.9-1.4,1.5-1.9c0.6-0.5,1.3-0.8,2.1-0.8c0.6,0,1.1,0,1.6,0.1s0.9,0.2,1.2,0.4c0.3,0.2,0.6,0.5,0.8,0.9s0.3,1.1,0.3,1.9
		c0,0.1,0,0.1-0.1,0.2s-0.2,0.1-0.3,0.1c-0.1,0-0.2,0-0.3,0c-0.1,0-0.1-0.1-0.1-0.2c0-0.1,0-0.3,0-0.6s-0.1-0.5-0.1-0.8
		c-0.1-0.3-0.2-0.5-0.3-0.7c-0.1-0.2-0.3-0.3-0.5-0.3c-0.5,0-1.1,0.2-1.6,0.7s-0.9,1-1.3,1.8s-0.7,1.6-0.9,2.6
		c-0.2,1-0.3,1.9-0.3,2.9c0,0.2,0,0.4,0,0.7c0,0.3,0,0.5,0.1,0.7s0.1,0.4,0.2,0.5s0.2,0.2,0.4,0.2c0.1,0,0.2-0.1,0.4-0.3
		s0.3-0.5,0.5-0.9c0.2-0.4,0.3-0.8,0.5-1.2c0.1-0.4,0.3-0.9,0.4-1.3c0.1-0.4,0.2-0.8,0.3-1.2s0.1-0.6,0.1-0.8c0-0.1,0-0.2,0-0.4
		c0-0.1,0.1-0.3,0.1-0.4c0.1-0.1,0.2-0.2,0.4-0.3c0.2-0.1,0.4-0.1,0.8-0.1c0.7,0,1.2,0.1,1.5,0.4c0.3,0.2,0.4,0.5,0.4,0.7v0.4
		c0,0.4,0,0.9,0,1.5c0,0.6,0,1.3,0.1,1.9c0,0.6,0.1,1.2,0.2,1.6c0.1,0.5,0.2,0.7,0.4,0.7c0.1,0,0.2-0.2,0.4-0.5
		c0.2-0.3,0.4-0.8,0.6-1.3c0.2-0.5,0.4-1.1,0.7-1.7c0.2-0.6,0.5-1.2,0.6-1.8c0.2-0.5,0.4-1,0.5-1.4
		C80.8,112.5,80.9,112.3,80.9,112.2z"/>
	<path fill="#FFFFFF" d="M92.6,120.9c0,0.6,0,1.2,0.1,1.5c0.1,0.4,0.1,0.7,0.2,0.9c0.1,0.2,0.1,0.4,0.2,0.5c0.1,0.1,0.1,0.2,0.1,0.3
		c0,0.2-0.2,0.3-0.5,0.4c-0.3,0.1-0.7,0-1.1-0.1s-0.8-0.4-1.1-0.8c-0.3-0.4-0.5-1-0.5-1.8s0-1.6,0.1-2.6c0.1-0.9,0.2-1.8,0.3-2.6
		c0.1-0.8,0.2-1.6,0.3-2.3c0.1-0.7,0.1-1.1,0.1-1.4c0-0.3,0-0.5-0.1-0.7c-0.1-0.2-0.2-0.3-0.3-0.4c-0.1-0.1-0.3-0.2-0.4-0.3
		c-0.3,1.2-0.5,2.3-0.7,3.3c-0.1,0.4-0.2,0.9-0.2,1.4s-0.1,0.9-0.2,1.3c-0.1,0.4-0.1,0.8-0.2,1.2c0,0.4-0.1,0.7-0.1,0.9
		c0,0.1-0.1,0.3-0.2,0.3c0,0.1,0,0.2-0.2,0.2c-0.1,0-0.4,0.1-0.7,0.1c-0.6,0-1-0.3-1.4-0.9c-0.4-0.6-0.7-1.3-0.9-2.2
		c-0.2-0.9-0.4-1.9-0.5-3c-0.1-1.1-0.2-2.1-0.2-3.2c0-0.2,0-0.5,0-0.9c0-0.3,0-0.7,0-1.1s0-0.8,0.1-1.1s0-0.7,0.1-1
		c-0.3,0.2-0.7,0.4-1.2,0.6c-0.5,0.2-1,0.4-1.6,0.5c0,0.6-0.1,1.3-0.1,2.1s-0.1,1.4-0.1,2.1s0,1.4,0,2c0,0.6,0,1.1,0.1,1.6
		c0.1,1,0.2,1.8,0.4,2.5c0.2,0.7,0.3,1.3,0.5,1.7c0.2,0.5,0.3,0.8,0.5,1.1c0.1,0.3,0.2,0.5,0.3,0.6s0.1,0.2,0,0.3
		c-0.1,0-0.2,0.1-0.4,0.1c-0.3,0-0.7-0.1-1.1-0.4c-0.4-0.3-0.8-0.7-1.2-1.3c-0.4-0.6-0.7-1.3-1.1-2.2c-0.3-0.9-0.5-2-0.7-3.2
		c0-0.4-0.1-0.9-0.1-1.5s0-1.2,0-1.8c0-0.6,0-1.2,0-1.8c0-0.6,0-1.2,0.1-1.7c0,0-0.1,0-0.2,0c-0.6,0-1.1-0.1-1.6-0.3
		c-0.5-0.1-1-0.3-1.5-0.5c-0.5-0.2-0.9-0.4-1.3-0.6c-0.4-0.2-0.7-0.4-1-0.6c-0.2-0.2-0.3-0.3-0.3-0.4c0.1-0.1,0.2-0.2,0.3-0.1
		c0.8,0.1,1.7,0.2,2.7,0.3c1,0.1,2,0.1,2.9,0.1c0-0.1,0-0.1,0-0.1c0,0,0,0,0,0s0,0,0,0s0,0,0-0.1l0.1-1.7c0.1-0.9,0.1-1.7,0.2-2.3
		c0-0.6,0.1-1.1,0-1.3c0-0.4,0-0.6,0.1-0.8c0.1-0.2,0.3-0.3,0.5-0.4c0.2-0.1,0.4,0,0.6,0c0.2,0.1,0.5,0.2,0.7,0.4
		c0.2,0.2,0.4,0.4,0.6,0.6c0.2,0.2,0.3,0.5,0.3,0.8c0,0.2,0,0.6,0,1s0,1-0.1,1.6l-0.1,1.5c0,0.1,0,0.2,0,0.3s0,0.1,0,0.1
		s0,0.1,0,0.1s0,0.1,0,0.3c0.5-0.1,1-0.2,1.5-0.3c0.5-0.1,0.9-0.2,1.3-0.4c0.1-0.7,0.2-1.3,0.4-2c0.2-0.6,0.4-1.2,0.6-1.7
		c0.2-0.5,0.5-0.9,0.9-1.2s0.7-0.4,1.2-0.4c0.2,0,0.4,0.1,0.5,0.3c0.1,0.2,0.2,0.4,0.2,0.7s0,0.7-0.1,1s-0.2,0.8-0.3,1.1
		c-0.1,0.4-0.3,0.7-0.5,1.1c-0.2,0.3-0.4,0.6-0.6,0.8c0,0.4,0,0.8,0,1.3c0,0.5,0,1,0,1.6c0,0.6,0,1.1,0,1.7c0,0.6,0,1.2,0,1.7
		c0,1.7,0.1,3.2,0.2,4.3c0.1,1.1,0.3,1.8,0.4,2.1c0.1-0.4,0.2-0.9,0.3-1.4s0.2-1.1,0.4-1.6c0.1-0.5,0.3-1.1,0.5-1.6
		c0.2-0.5,0.3-1,0.5-1.4c0.2-0.4,0.3-0.8,0.5-1c0.1-0.3,0.3-0.4,0.4-0.4c0.2,0,0.5,0,0.8,0.1c0.4,0.1,0.7,0.2,1.1,0.4
		c0.4,0.2,0.7,0.4,0.9,0.7c0.3,0.3,0.4,0.7,0.4,1.1s0,1-0.1,1.7c0,0.7-0.1,1.4-0.1,2.1c0,0.7-0.1,1.5-0.1,2.2
		C92.6,119.8,92.6,120.4,92.6,120.9z M87.5,100.9c-0.1,0-0.1,0.1-0.2,0.2c-0.1,0.1-0.1,0.3-0.2,0.5c-0.1,0.2-0.1,0.6-0.2,1
		c-0.1,0.4-0.1,0.9-0.1,1.6c0.2-0.2,0.4-0.5,0.5-0.9c0.1-0.4,0.2-0.7,0.3-1.1s0.1-0.6,0-0.9C87.6,101,87.6,100.9,87.5,100.9z"/>
	<path fill="#FFFFFF" d="M107.1,112.2c0-0.1,0.1-0.2,0.2-0.3s0.1-0.1,0.2-0.1c0.1,0,0.1,0,0.2,0.1c0,0.1,0,0.2,0,0.3
		c0,0.1-0.1,0.3-0.2,0.8c-0.1,0.4-0.3,1-0.5,1.6c-0.2,0.6-0.4,1.3-0.7,2c-0.3,0.7-0.5,1.4-0.8,2c-0.3,0.6-0.6,1.2-0.9,1.6
		s-0.6,0.7-0.9,0.8c-0.1,0-0.2,0.1-0.4,0.1c-0.4,0-0.7-0.1-0.9-0.3c-0.3-0.2-0.5-0.5-0.7-0.8c-0.2-0.3-0.4-0.7-0.5-1
		c-0.1-0.4-0.2-0.7-0.3-1c-0.1-0.3-0.2-0.6-0.2-0.8c0-0.2-0.1-0.3-0.1-0.3c0,0-0.1,0.1-0.1,0.3s-0.2,0.4-0.3,0.6
		c-0.1,0.2-0.2,0.5-0.4,0.8c-0.1,0.3-0.3,0.6-0.5,0.8c-0.2,0.2-0.4,0.4-0.6,0.6c-0.2,0.2-0.5,0.3-0.8,0.3c-0.4,0-0.9-0.1-1.2-0.2
		c-0.4-0.2-0.7-0.4-1-0.7c-0.3-0.3-0.5-0.8-0.7-1.3c-0.2-0.5-0.2-1.2-0.2-1.9c0-0.7,0.1-1.5,0.3-2.4c0.2-0.9,0.5-1.7,0.9-2.5
		c0.4-0.8,0.9-1.4,1.5-1.9c0.6-0.5,1.3-0.8,2.1-0.8c0.6,0,1.1,0,1.6,0.1s0.9,0.2,1.2,0.4c0.3,0.2,0.6,0.5,0.8,0.9s0.3,1.1,0.3,1.9
		c0,0.1,0,0.1-0.1,0.2s-0.2,0.1-0.3,0.1c-0.1,0-0.2,0-0.3,0c-0.1,0-0.1-0.1-0.1-0.2c0-0.1,0-0.3,0-0.6s-0.1-0.5-0.1-0.8
		c-0.1-0.3-0.2-0.5-0.3-0.7c-0.1-0.2-0.3-0.3-0.5-0.3c-0.5,0-1.1,0.2-1.6,0.7s-0.9,1-1.3,1.8s-0.7,1.6-0.9,2.6
		c-0.2,1-0.3,1.9-0.3,2.9c0,0.2,0,0.4,0,0.7c0,0.3,0,0.5,0.1,0.7s0.1,0.4,0.2,0.5s0.2,0.2,0.4,0.2c0.1,0,0.2-0.1,0.4-0.3
		s0.3-0.5,0.5-0.9c0.2-0.4,0.3-0.8,0.5-1.2c0.1-0.4,0.3-0.9,0.4-1.3c0.1-0.4,0.2-0.8,0.3-1.2s0.1-0.6,0.1-0.8c0-0.1,0-0.2,0-0.4
		c0-0.1,0.1-0.3,0.1-0.4c0.1-0.1,0.2-0.2,0.4-0.3c0.2-0.1,0.4-0.1,0.8-0.1c0.7,0,1.2,0.1,1.5,0.4c0.3,0.2,0.4,0.5,0.4,0.7v0.4
		c0,0.4,0,0.9,0,1.5c0,0.6,0,1.3,0.1,1.9c0,0.6,0.1,1.2,0.2,1.6c0.1,0.5,0.2,0.7,0.4,0.7c0.1,0,0.2-0.2,0.4-0.5
		c0.2-0.3,0.4-0.8,0.6-1.3c0.2-0.5,0.4-1.1,0.7-1.7c0.2-0.6,0.5-1.2,0.6-1.8c0.2-0.5,0.4-1,0.5-1.4
		C107,112.5,107.1,112.3,107.1,112.2z"/>
	<path fill="#FFFFFF" d="M115.8,109.3c0,0.2,0,0.4-0.1,0.8c-0.1,0.4-0.1,0.8-0.2,1.2c-0.1,0.5-0.2,0.9-0.3,1.5
		c-0.1,0.5-0.2,1-0.3,1.5c-0.1,0.5-0.2,0.9-0.2,1.4c-0.1,0.4-0.1,0.8-0.1,1.1c0,0.8,0,1.5,0.1,1.9s0.1,0.8,0.2,1
		c0.1,0.2,0.1,0.4,0.2,0.5c0,0.1,0.1,0.2,0.1,0.4s-0.2,0.2-0.5,0.2s-0.7-0.1-1.1-0.4s-0.8-0.6-1.1-1.2c-0.3-0.5-0.5-1.3-0.5-2.2
		c0-0.6,0-1.3,0.1-1.9s0.1-1.3,0.2-1.9c0.1-0.6,0.2-1.2,0.3-1.8c0.1-0.6,0.2-1,0.3-1.5c-0.2,0.4-0.3,0.9-0.5,1.5
		c-0.2,0.6-0.4,1.2-0.6,1.9c-0.2,0.7-0.4,1.4-0.6,2.1c-0.2,0.7-0.4,1.3-0.6,2s-0.4,1.1-0.6,1.6c-0.2,0.5-0.3,0.8-0.5,1
		c0,0.1-0.1,0.2-0.2,0.2h-0.1c-0.1,0-0.2,0-0.3,0c-0.5,0-1-0.2-1.3-0.6c-0.4-0.4-0.6-0.8-0.9-1.4c-0.2-0.6-0.4-1.2-0.5-1.8
		s-0.2-1.3-0.2-1.9s-0.1-1.1,0-1.5c0-0.4,0-0.6,0-0.7c0-0.1,0-0.2,0-0.2s-0.1-0.1-0.1-0.1c0,0-0.1-0.1-0.1-0.1s0-0.1,0-0.2
		c0-0.1,0.2-0.2,0.5-0.2c0.3-0.1,0.7-0.1,1.1,0c0.4,0,0.8,0.1,1.1,0.3c0.3,0.2,0.5,0.4,0.5,0.8c0,0.1,0,0.3,0,0.6s0,0.7,0,1
		c0,0.4,0,0.7,0,1.1c0,0.4,0,0.6,0,0.8c0,0.3,0,0.6,0,0.8s0,0.5,0.1,0.7c0.1-0.5,0.3-1,0.5-1.6c0.2-0.6,0.4-1.2,0.6-1.9
		c0.2-0.7,0.5-1.3,0.7-1.9c0.3-0.6,0.5-1.2,0.8-1.8c0.3-0.6,0.5-1,0.8-1.4c0.3-0.4,0.5-0.7,0.8-0.8c0,0,0.1-0.1,0.2-0.1
		c0,0,0.1,0,0.1,0s0.1,0,0.1,0c0.1,0,0.1,0,0.2,0s0.1,0,0.2,0c0.3,0,0.5,0,0.6,0.1c0.4,0.1,0.7,0.3,1,0.5
		C115.7,108.8,115.8,109,115.8,109.3z"/>
	<path fill="#FFFFFF" d="M134.1,98.6c0.5,0,0.9,0.1,1.3,0.4c0.4,0.2,0.7,0.5,1,0.9c0.3,0.4,0.5,0.8,0.7,1.2c0.2,0.4,0.3,0.8,0.3,1.2
		s0,0.7,0,0.9s-0.2,0.4-0.4,0.4c-0.1,0-0.3-0.1-0.5-0.2s-0.5-0.3-0.7-0.5c-0.3-0.2-0.6-0.3-1-0.5c-0.4-0.1-0.8-0.2-1.2-0.2
		c-0.7,0-1.4,0.2-2.1,0.5s-1.5,0.7-2.2,1.2c-0.7,0.5-1.4,1-2,1.5c-0.6,0.5-1.1,1-1.5,1.5c-0.4,0.5-0.6,0.9-0.7,1.2
		c-0.1,0.3,0.1,0.5,0.5,0.5c0.2,0,0.6-0.1,1-0.2s0.9-0.3,1.5-0.5c0.6-0.2,1.2-0.4,2-0.5c0.7-0.2,1.6-0.2,2.5-0.2
		c1.2,0,2.1,0.1,2.8,0.4c0.7,0.3,1.2,0.6,1.6,1c0.4,0.4,0.6,0.8,0.7,1.3c0.1,0.5,0.2,0.9,0.2,1.4c0,1-0.2,2-0.5,2.9
		c-0.4,0.9-0.9,1.8-1.5,2.5c-0.6,0.8-1.3,1.5-2.1,2.1c-0.8,0.6-1.6,1.2-2.4,1.6c-0.8,0.4-1.7,0.8-2.5,1s-1.6,0.4-2.3,0.4
		c-0.4,0-0.8-0.1-1.2-0.2c-0.4-0.2-0.9-0.4-1.2-0.7c-0.4-0.3-0.7-0.7-1-1.2c-0.3-0.5-0.4-1.1-0.4-1.7c0-0.4,0.1-0.6,0.2-0.8
		s0.3-0.2,0.5-0.2c0.2,0,0.3,0.1,0.5,0.3c0.1,0.2,0.2,0.4,0.2,0.7c0,0.3,0.1,0.5,0.2,0.6c0.1,0.2,0.3,0.3,0.5,0.4
		c0.2,0.1,0.4,0.2,0.6,0.2c0.2,0,0.4,0.1,0.6,0.1c0.4,0,0.9-0.1,1.5-0.3c0.6-0.2,1.2-0.5,1.8-0.8s1.2-0.8,1.8-1.3
		c0.6-0.5,1.1-1,1.6-1.6c0.5-0.6,0.8-1.2,1.1-1.8c0.3-0.6,0.4-1.2,0.4-1.8c0-0.4,0-0.8-0.1-1.2c0-0.4-0.1-0.7-0.3-0.9
		c-0.1-0.3-0.3-0.5-0.6-0.6c-0.2-0.2-0.5-0.2-0.9-0.2c-0.9,0-1.7,0.1-2.5,0.3c-0.8,0.2-1.5,0.4-2.1,0.7c-0.6,0.2-1.1,0.5-1.5,0.7
		c-0.4,0.2-0.7,0.3-0.8,0.3c-0.3,0-0.6-0.1-0.9-0.2c-0.3-0.1-0.5-0.3-0.8-0.5c-0.2-0.2-0.4-0.4-0.5-0.7c-0.1-0.2-0.2-0.5-0.2-0.7
		c0-0.6,0.2-1.2,0.5-1.9s0.8-1.4,1.4-2.1c0.6-0.7,1.2-1.4,2-2s1.5-1.2,2.3-1.7c0.8-0.5,1.6-0.9,2.4-1.2S133.4,98.6,134.1,98.6z"/>
	<path fill="#FFFFFF" d="M142.6,106.8c0,0.3-0.1,0.6-0.3,0.7c-0.2,0.1-0.5,0.2-0.8,0.2c-0.3,0-0.7-0.1-1-0.2c-0.4-0.1-0.7-0.3-1-0.5
		c-0.3-0.2-0.6-0.4-0.8-0.6c-0.2-0.2-0.3-0.4-0.3-0.6c0-0.3,0.1-0.5,0.2-0.6s0.3-0.3,0.4-0.3c0.2-0.1,0.4-0.1,0.6-0.1
		c0.2,0,0.5,0,0.8,0c0.3,0,0.5,0.1,0.8,0.2c0.3,0.1,0.5,0.3,0.7,0.6c0.2,0.2,0.4,0.5,0.5,0.7C142.5,106.4,142.6,106.6,142.6,106.8z
		 M145.1,113.7c0-0.1,0.1-0.2,0.2-0.3c0.1-0.1,0.1-0.1,0.2,0s0.1,0.1,0.1,0.1c0,0.1,0,0.1,0,0.2c0,0.2-0.1,0.5-0.3,0.8
		s-0.3,0.8-0.5,1.3c-0.2,0.5-0.4,0.9-0.6,1.4c-0.2,0.5-0.5,0.9-0.7,1.3s-0.5,0.7-0.8,1c-0.3,0.3-0.5,0.4-0.8,0.4h0
		c-0.7,0-1.3-0.2-1.7-0.7c-0.4-0.4-0.7-1-1-1.6c-0.2-0.6-0.4-1.3-0.4-2c-0.1-0.7-0.1-1.3-0.1-1.8c0-0.6,0-1.2,0-1.6s0.1-0.8,0.1-1.1
		s0.1-0.6,0.1-0.8c0-0.2,0-0.4,0-0.5c0-0.2,0.1-0.4,0.4-0.4c0.3,0,0.6,0,1,0.1c0.4,0.1,0.7,0.3,1,0.5s0.4,0.5,0.4,0.8
		c0,0.2,0,0.4,0,0.7c0,0.2,0,0.5,0,0.8c0,0.3,0,0.6,0,0.8c0,0.3,0,0.5,0,0.8c0,1.2,0.1,2.2,0.3,2.9c0.2,0.7,0.4,1.3,0.6,1.8
		c0.1-0.1,0.3-0.2,0.5-0.5s0.4-0.5,0.6-0.9c0.2-0.3,0.4-0.7,0.6-1c0.2-0.4,0.3-0.7,0.5-1c0.1-0.3,0.3-0.6,0.4-0.9
		C145,114,145.1,113.8,145.1,113.7z"/>
	<path fill="#FFFFFF" d="M153.8,122.4c0.7,0.3,1.2,0.7,1.6,1.3c0.4,0.5,0.6,1.1,0.8,1.7c0.2,0.6,0.2,1.1,0.2,1.6
		c0,0.5-0.1,0.9-0.2,1.2c-0.2,0.5-0.7,1-1.3,1.6c-0.7,0.6-1.4,1.1-2.3,1.7s-1.9,1.1-3,1.5c-1.1,0.5-2.2,0.8-3.2,1.1
		c-1.1,0.3-2.1,0.4-3.1,0.4c-1,0-1.9-0.2-2.7-0.5c-0.2-0.1-0.6-0.3-0.9-0.7c-0.4-0.3-0.7-0.7-1.1-1.1c-0.3-0.4-0.6-0.9-0.8-1.3
		c-0.2-0.5-0.2-0.9-0.1-1.3c0.1-0.4,0.4-0.8,0.9-1.1c0.4-0.3,0.9-0.6,1.5-0.8c0.5-0.2,1.1-0.4,1.7-0.5c0.6-0.1,1.1-0.2,1.6-0.2
		c0.5,0,0.9,0,1.2,0s0.4,0.1,0.4,0.2c0,0.1-0.2,0.2-0.5,0.2s-0.6,0.2-0.9,0.2c-0.4,0.1-0.8,0.2-1.2,0.3s-0.9,0.3-1.3,0.4
		c-0.4,0.2-0.8,0.4-1.1,0.7c-0.3,0.3-0.6,0.6-0.8,0.9c-0.2,0.4-0.1,0.7,0.2,1s0.8,0.4,1.4,0.5c0.6,0.1,1.4,0.2,2.3,0.1
		c0.9,0,1.8-0.1,2.8-0.3c1-0.2,2-0.4,3-0.6c1-0.3,1.9-0.6,2.8-1c0.9-0.4,1.6-0.8,2.3-1.3c0.6-0.5,1.1-1,1.4-1.6
		c0.2-0.4,0.2-0.8,0-1.2c-0.2-0.4-0.5-0.8-1.1-1.1c-0.8-0.4-1.7-0.6-2.6-0.7c-0.9-0.1-1.8,0-2.6,0.1c-0.1,0.1-0.1,0.2-0.2,0.2
		c-0.1,0-0.2,0-0.2-0.1c-0.5,0.1-1,0.2-1.4,0.3c-0.4,0.1-0.8,0.2-1.2,0.3s-0.6,0.1-0.8,0.2c-0.2,0-0.4,0.1-0.4,0
		c-0.1,0-0.2-0.1-0.3-0.3c-0.1-0.1-0.2-0.3-0.3-0.5s-0.1-0.4-0.1-0.7c0-0.2,0-0.5,0.2-0.7c0.2-0.4,0.6-0.7,1.4-0.8
		c0.7-0.2,1.6-0.2,2.5-0.2v-0.1c0-0.1,0-0.3,0-0.5c0-0.2,0-0.3,0-0.6h0c-0.4,0-0.8-0.1-1.2-0.3c-0.4-0.2-0.8-0.5-1.2-1
		s-0.7-1-0.9-1.7c-0.2-0.7-0.4-1.5-0.4-2.5c0-0.5,0.1-1.1,0.2-1.6c0.2-0.6,0.4-1.2,0.6-1.7c0.2-0.6,0.5-1.1,0.8-1.6
		c0.3-0.5,0.6-1,0.9-1.4c0.3-0.4,0.6-0.7,0.9-0.9c0.3-0.2,0.5-0.4,0.7-0.4c0.5,0,0.8,0.1,1.1,0.3s0.5,0.4,0.7,0.6
		c0.2,0.2,0.3,0.5,0.3,0.7c0,0.2,0.1,0.4,0.1,0.5c0,0.1-0.1,0.2-0.3,0.4c-0.2,0.2-0.5,0.4-0.8,0.7c-0.3,0.3-0.6,0.6-1,1
		c-0.4,0.4-0.7,0.9-1,1.4c-0.3,0.6-0.6,1.2-0.8,1.9c-0.2,0.7-0.3,1.5-0.3,2.4c0,0.9,0.2,1.5,0.5,1.9c0.3,0.3,0.7,0.4,1.1,0.3
		c0-0.3,0-0.6,0.1-1s0.1-0.6,0.1-0.8c0-0.2,0.1-0.4,0.1-0.6s0.1-0.2,0.1-0.2c0.2,0,0.5,0.1,0.6,0.4c0.2,0.3,0.3,0.6,0.4,1.1
		c0.5-0.6,0.9-1.4,1.3-2.4c0.4-1,0.5-2.2,0.5-3.5c0-0.1,0.1-0.2,0.2-0.2s0.3,0,0.5,0.1c0.2,0.1,0.3,0.3,0.5,0.5
		c0.1,0.2,0.2,0.6,0.2,1c0,0.3-0.1,0.8-0.2,1.3c-0.1,0.6-0.3,1.1-0.6,1.7c-0.3,0.6-0.6,1.2-1,1.7c-0.4,0.6-0.8,1-1.3,1.4
		c0,0.3,0,0.5,0,0.8c0,0.3-0.1,0.6-0.1,1c0.5,0,0.9,0.1,1.3,0.2s0.9,0.1,1.3,0.2s0.8,0.2,1.1,0.3
		C153.3,122.2,153.6,122.3,153.8,122.4z"/>
	<path fill="#FFFFFF" d="M163.6,122.4c0.7,0.3,1.2,0.7,1.6,1.3c0.4,0.5,0.6,1.1,0.8,1.7c0.2,0.6,0.2,1.1,0.2,1.6
		c0,0.5-0.1,0.9-0.2,1.2c-0.2,0.5-0.7,1-1.3,1.6c-0.7,0.6-1.4,1.1-2.3,1.7s-1.9,1.1-3,1.5c-1.1,0.5-2.2,0.8-3.2,1.1
		c-1.1,0.3-2.1,0.4-3.1,0.4c-1,0-1.9-0.2-2.7-0.5c-0.2-0.1-0.6-0.3-0.9-0.7c-0.4-0.3-0.7-0.7-1.1-1.1c-0.3-0.4-0.6-0.9-0.8-1.3
		c-0.2-0.5-0.2-0.9-0.1-1.3c0.1-0.4,0.4-0.8,0.9-1.1c0.4-0.3,0.9-0.6,1.5-0.8c0.5-0.2,1.1-0.4,1.7-0.5c0.6-0.1,1.1-0.2,1.6-0.2
		c0.5,0,0.9,0,1.2,0s0.4,0.1,0.4,0.2c0,0.1-0.2,0.2-0.5,0.2s-0.6,0.2-0.9,0.2c-0.4,0.1-0.8,0.2-1.2,0.3s-0.9,0.3-1.3,0.4
		c-0.4,0.2-0.8,0.4-1.1,0.7c-0.3,0.3-0.6,0.6-0.8,0.9c-0.2,0.4-0.1,0.7,0.2,1s0.8,0.4,1.4,0.5c0.6,0.1,1.4,0.2,2.3,0.1
		c0.9,0,1.8-0.1,2.8-0.3c1-0.2,2-0.4,3-0.6c1-0.3,1.9-0.6,2.8-1c0.9-0.4,1.6-0.8,2.3-1.3c0.6-0.5,1.1-1,1.4-1.6
		c0.2-0.4,0.2-0.8,0-1.2c-0.2-0.4-0.5-0.8-1.1-1.1c-0.8-0.4-1.7-0.6-2.6-0.7c-0.9-0.1-1.8,0-2.6,0.1c-0.1,0.1-0.1,0.2-0.2,0.2
		c-0.1,0-0.2,0-0.2-0.1c-0.5,0.1-1,0.2-1.4,0.3c-0.4,0.1-0.8,0.2-1.2,0.3s-0.6,0.1-0.8,0.2c-0.2,0-0.4,0.1-0.4,0
		c-0.1,0-0.2-0.1-0.3-0.3c-0.1-0.1-0.2-0.3-0.3-0.5s-0.1-0.4-0.1-0.7c0-0.2,0-0.5,0.2-0.7c0.2-0.4,0.6-0.7,1.4-0.8
		c0.7-0.2,1.6-0.2,2.5-0.2v-0.1c0-0.1,0-0.3,0-0.5c0-0.2,0-0.3,0-0.6h0c-0.4,0-0.8-0.1-1.2-0.3c-0.4-0.2-0.8-0.5-1.2-1
		s-0.7-1-0.9-1.7c-0.2-0.7-0.4-1.5-0.4-2.5c0-0.5,0.1-1.1,0.2-1.6c0.2-0.6,0.4-1.2,0.6-1.7c0.2-0.6,0.5-1.1,0.8-1.6
		c0.3-0.5,0.6-1,0.9-1.4c0.3-0.4,0.6-0.7,0.9-0.9c0.3-0.2,0.5-0.4,0.7-0.4c0.5,0,0.8,0.1,1.1,0.3s0.5,0.4,0.7,0.6
		c0.2,0.2,0.3,0.5,0.3,0.7c0,0.2,0.1,0.4,0.1,0.5c0,0.1-0.1,0.2-0.3,0.4c-0.2,0.2-0.5,0.4-0.8,0.7c-0.3,0.3-0.6,0.6-1,1
		c-0.4,0.4-0.7,0.9-1,1.4c-0.3,0.6-0.6,1.2-0.8,1.9c-0.2,0.7-0.3,1.5-0.3,2.4c0,0.9,0.2,1.5,0.5,1.9c0.3,0.3,0.7,0.4,1.1,0.3
		c0-0.3,0-0.6,0.1-1s0.1-0.6,0.1-0.8c0-0.2,0.1-0.4,0.1-0.6s0.1-0.2,0.1-0.2c0.2,0,0.5,0.1,0.6,0.4c0.2,0.3,0.3,0.6,0.4,1.1
		c0.5-0.6,0.9-1.4,1.3-2.4c0.4-1,0.5-2.2,0.5-3.5c0-0.1,0.1-0.2,0.2-0.2s0.3,0,0.5,0.1c0.2,0.1,0.3,0.3,0.5,0.5
		c0.1,0.2,0.2,0.6,0.2,1c0,0.3-0.1,0.8-0.2,1.3c-0.1,0.6-0.3,1.1-0.6,1.7c-0.3,0.6-0.6,1.2-1,1.7c-0.4,0.6-0.8,1-1.3,1.4
		c0,0.3,0,0.5,0,0.8c0,0.3-0.1,0.6-0.1,1c0.5,0,0.9,0.1,1.3,0.2s0.9,0.1,1.3,0.2s0.8,0.2,1.1,0.3
		C163.1,122.2,163.3,122.3,163.6,122.4z"/>
</g>
</svg>
